<svg width="29" height="31" viewBox="0 0 29 31" fill="none" xmlns="http://www.w3.org/2000/svg">
<path d="M21.2888 0.154443C22.2162 0.0412403 23.183 0.375928 23.8601 1.01718C24.3987 1.5396 24.7707 2.24554 24.8438 2.99647C24.9598 3.95976 24.6082 4.96874 23.91 5.64444C23.2934 6.2646 22.4138 6.61405 21.5398 6.57468C20.4464 6.5571 19.3981 5.91937 18.8567 4.97226C18.4067 4.22905 18.3202 3.29741 18.5452 2.46632C18.8834 1.23655 20.0189 0.278193 21.2888 0.154443Z" fill="#5D748A"/>
<path d="M11.033 5.15777C11.3663 5.07762 11.6961 5.19996 12.0202 5.26254C13.7619 5.64012 15.5021 6.02121 17.243 6.39949C17.4174 6.43254 17.5834 6.49934 17.7373 6.58723C18.3083 6.90996 18.8778 7.23481 19.4544 7.54699C19.9691 7.81629 20.3579 8.31129 20.5048 8.87238C20.6384 9.40535 20.5773 9.98895 20.3108 10.472C19.1928 12.6777 18.0755 14.8841 16.9604 17.0912C18.2323 18.2007 19.4937 19.3229 20.7523 20.4479C21.1524 20.7735 21.3739 21.3163 21.2741 21.8275C20.8297 24.1639 20.3867 26.5011 19.9416 28.8383C19.8769 29.1596 19.8411 29.4915 19.7138 29.7967C19.4663 30.3332 18.9551 30.7494 18.3659 30.8408C17.5201 31.0061 16.6159 30.4471 16.3662 29.6265C16.2263 29.2447 16.2734 28.8299 16.3634 28.4432C16.76 26.4491 17.1334 24.4501 17.5348 22.4575C15.7552 21.3507 13.9679 20.2567 12.1855 19.1549C11.514 18.8265 10.9824 18.2317 10.7314 17.5279C10.4635 16.7769 10.5198 15.9057 10.9128 15.2089C12.1482 13.1945 13.3899 11.1843 14.619 9.16559C13.5791 8.82246 12.5314 8.50395 11.4908 8.16293C10.0367 9.20566 8.58757 10.2547 7.13281 11.2968C6.7707 11.5745 6.2757 11.6434 5.84398 11.5098C5.32085 11.3418 4.90882 10.8552 4.86382 10.3025C4.80405 9.8209 5.00726 9.31324 5.39538 9.01793C6.99851 7.87395 8.59741 6.72363 10.1977 5.57473C10.4473 5.3877 10.7173 5.20488 11.033 5.15777Z" fill="#5D748A"/>
<path d="M19.827 14.5446C20.3663 13.4878 20.9084 12.4324 21.4365 11.3707C21.8668 12.3825 22.2922 13.3957 22.7127 14.4117C23.9389 14.4139 25.1659 14.4124 26.3921 14.4124C26.7563 14.4153 27.1311 14.3829 27.482 14.5017C28.0599 14.7092 28.4839 15.3117 28.4291 15.9326C28.4213 16.6913 27.7091 17.322 26.9609 17.2988C25.4366 17.2988 23.9115 17.2974 22.3871 17.2995C22.0461 17.3037 21.6861 17.3114 21.376 17.1497C21.0667 17.0049 20.8269 16.7398 20.6842 16.4332C20.398 15.8039 20.1118 15.1746 19.827 14.5446Z" fill="#5D748A"/>
<path d="M7.87668 20.8552C8.43355 20.0072 8.94754 19.1304 9.52199 18.2951C9.87918 19.1023 10.4923 19.7921 11.2531 20.2399C11.6208 20.4572 11.9759 20.6963 12.3478 20.9079C11.8282 21.687 11.2664 22.4372 10.7328 23.2057C10.2336 23.9173 9.40808 24.3933 8.53691 24.4306C6.44722 24.4313 4.35824 24.4299 2.26925 24.4313C1.45996 24.4137 0.721676 23.764 0.593004 22.9653C0.441129 22.2073 0.850348 21.3776 1.54855 21.045C1.79113 20.9206 2.06113 20.8439 2.33535 20.8538C4.18246 20.8566 6.02957 20.8524 7.87668 20.8552Z" fill="#5D748A"/>
</svg>
