<svg width="28" height="32" viewBox="0 0 28 32" fill="none" xmlns="http://www.w3.org/2000/svg">
<path d="M2.40269 0.791172C2.71808 0.795469 3.03347 0.802344 3.34801 0.785156C3.37293 1.95477 3.34457 3.12523 3.36262 4.29484C4.27183 4.46758 5.07965 5.10695 5.42254 5.97148C5.95191 7.19523 5.41738 8.72836 4.26582 9.38578C4.88199 10.9756 5.60902 12.5328 6.55348 13.9559C7.14129 14.8102 7.81332 15.6412 8.69762 16.2032C9.3834 16.6552 10.2557 16.8615 11.0592 16.6372C11.9753 16.3871 12.7229 15.7434 13.3382 15.043C14.7528 13.3991 15.6474 11.3933 16.4604 9.40297C15.955 9.06695 15.5193 8.60977 15.2968 8.03742C14.9719 7.23305 15.0484 6.26969 15.5245 5.54008C15.9301 4.88953 16.6185 4.4375 17.3687 4.29141C17.3661 3.12609 17.367 1.96078 17.3678 0.795469C17.6884 0.795469 18.0089 0.79375 18.3295 0.797187C18.3295 1.96078 18.3372 3.12352 18.3252 4.28625C19.1064 4.44867 19.83 4.92391 20.2253 5.62516C20.8217 6.61172 20.6911 7.96781 19.9159 8.82203C19.4432 9.36258 18.7549 9.71148 18.0356 9.75273C17.8594 9.72008 17.8689 9.92117 17.8285 10.0303C17.3739 11.7499 16.7637 13.4309 15.9868 15.0319C15.5606 15.9291 15.1146 16.8177 14.7459 17.7406C13.6287 20.4855 13.3021 23.4812 13.3185 26.4246C18.0029 27.2496 22.6822 28.1038 27.365 28.9391C27.1493 29.6541 26.9207 30.3657 26.6929 31.0781L26.6534 31.1108C22.7845 31.3866 18.9139 31.6668 15.0364 31.7802C13.4396 31.8241 11.7853 31.8052 10.2823 31.2002C9.10754 30.7507 8.13215 29.7848 7.7523 28.5773C7.3123 27.3424 7.47902 26.0173 7.39308 24.7351C7.3123 22.9665 7.08629 21.1962 6.59387 19.4929C6.17363 17.9907 5.50332 16.577 4.82183 15.1797C3.97793 13.448 3.32051 11.6287 2.83238 9.76648C1.95496 9.74328 1.09988 9.2964 0.6066 8.5668C0.0101933 7.71687 -0.0336347 6.52922 0.490584 5.63461C0.885037 4.93164 1.60691 4.44438 2.39496 4.29484C2.39754 3.12695 2.38207 1.95906 2.40269 0.791172ZM1.11191 6.85062C0.99074 7.77445 1.72894 8.70344 2.65793 8.78508C3.05238 8.58828 3.39355 8.29781 3.76738 8.06406C3.81722 8.20156 3.86793 8.3382 3.91863 8.4757C4.59496 7.97984 4.85449 7.00445 4.46777 6.25164C4.13004 5.52976 3.26121 5.10695 2.48519 5.30289C1.75902 5.45758 1.1798 6.1107 1.11191 6.85062ZM16.8909 5.53836C16.3899 5.85547 16.0668 6.43555 16.0796 7.03023C16.0659 7.59141 16.3555 8.14141 16.8118 8.46281C16.8514 8.32875 16.8926 8.19555 16.9356 8.06234C17.3361 8.28836 17.6893 8.6175 18.1181 8.78078C18.9311 8.67508 19.5996 7.93258 19.6203 7.11273C19.6624 6.43641 19.2705 5.76781 18.6707 5.45844C18.1207 5.16625 17.4117 5.19547 16.8909 5.53836Z" fill="white"/>
<path d="M9.74524 10.6226C10.7911 10.3269 11.9882 10.8469 12.4841 11.8145C12.8777 12.533 12.8587 13.4559 12.4445 14.1623C12.0733 14.8008 11.397 15.2572 10.6596 15.3371C9.9025 15.4402 9.11446 15.1463 8.59626 14.5886C7.94399 13.8985 7.76782 12.814 8.17087 11.9537C8.46133 11.304 9.05602 10.8022 9.74524 10.6226Z" fill="white"/>
</svg>
