<svg width="21" height="20" viewBox="0 0 21 20" fill="none" xmlns="http://www.w3.org/2000/svg">
<path d="M10.5 0C4.9775 0 0.5 4.4775 0.5 10C0.5 15.5225 4.9775 20 10.5 20C16.0225 20 20.5 15.5225 20.5 10C20.5 4.4775 16.0225 0 10.5 0ZM4.66667 15.9508C5.63917 13.0342 8.55583 14.1725 9.04167 12.5925V11.5392C8.82333 11.4217 8.1975 10.615 8.13167 9.985C7.95917 9.97 7.68917 9.79917 7.60917 9.12333C7.56667 8.76083 7.73667 8.55667 7.83917 8.4925C7.83917 8.4925 7.5825 7.9075 7.5825 7.32667C7.58333 5.6 8.43833 4.16667 10.5 4.16667C11.6133 4.16667 11.9583 4.95583 11.9583 4.95583C12.9533 4.95583 13.4167 6.04667 13.4167 7.32583C13.4167 7.96333 13.16 8.49167 13.16 8.49167C13.2633 8.55583 13.4333 8.76 13.3908 9.1225C13.3108 9.79833 13.0408 9.96917 12.8683 9.98417C12.8025 10.6142 12.1775 11.4208 11.9583 11.5383V12.5917C12.4442 14.1725 15.3608 13.0342 16.3333 15.9508C16.3333 15.9508 14.1517 18.3333 10.5 18.3333C6.8275 18.3333 4.66667 15.9508 4.66667 15.9508Z" fill="url(#paint0_linear)"/>
<defs>
<linearGradient id="paint0_linear" x1="0.296145" y1="-0.0516171" x2="3.70597" y2="14.5132" gradientUnits="userSpaceOnUse">
<stop stop-color="#FEA244"/>
<stop offset="1" stop-color="#FD9147"/>
</linearGradient>
</defs>
</svg>
