<svg width="34" height="34" viewBox="0 0 34 34" fill="none" xmlns="http://www.w3.org/2000/svg">
<path d="M11.6875 7.4375H5.3125V6.375C5.3125 5.78817 5.78817 5.3125 6.375 5.3125H10.625C11.2118 5.3125 11.6875 5.78817 11.6875 6.375V7.4375Z" fill="#463C4B"/>
<path d="M28.6875 7.4375H22.3125V6.375C22.3125 5.78817 22.7882 5.3125 23.375 5.3125H27.625C28.2118 5.3125 28.6875 5.78817 28.6875 6.375V7.4375Z" fill="#463C4B"/>
<path d="M1.0625 13.8125V23.4284C1.0625 26.3329 3.41707 28.6875 6.32161 28.6875C7.71641 28.6875 9.05409 28.1334 10.0404 27.1471L13.6813 23.5062C15.1259 22.0616 15.9375 20.1022 15.9375 18.0592V13.8125H1.0625Z" fill="#463C4B"/>
<path d="M32.9375 13.8125V23.4284C32.9375 26.3329 30.5829 28.6875 27.6784 28.6875C26.2836 28.6875 24.9459 28.1334 23.9596 27.1471L20.3187 23.5062C18.8741 22.0616 18.0625 20.1022 18.0625 18.0592V13.8125H32.9375Z" fill="#463C4B"/>
<path d="M25.5 6.375C23.7628 6.375 22.1649 6.97066 20.899 7.96875H13.101C11.8351 6.97066 10.2372 6.375 8.5 6.375C4.39237 6.375 1.0625 9.70487 1.0625 13.8125C1.0625 17.9201 4.39237 21.25 8.5 21.25C9.31427 21.25 10.0978 21.1187 10.8311 20.8769C11.3363 22.3309 12.7177 23.375 14.3438 23.375C15.3846 23.375 16.325 22.9469 17 22.2578C17.675 22.9469 18.6154 23.375 19.6562 23.375C21.2823 23.375 22.6637 22.3309 23.1689 20.8769C23.9022 21.1187 24.6857 21.25 25.5 21.25C29.6076 21.25 32.9375 17.9201 32.9375 13.8125C32.9375 9.70487 29.6076 6.375 25.5 6.375Z" fill="#555A6E"/>
<path d="M18.7709 11.6875H15.2292C14.349 11.6875 13.6355 10.974 13.6355 10.0938V7.96875H20.3646V10.0938C20.3646 10.974 19.6511 11.6875 18.7709 11.6875Z" fill="#463C4B"/>
<path d="M28.9531 15.6719C29.98 15.6719 30.8125 14.8394 30.8125 13.8125C30.8125 12.7856 29.98 11.9531 28.9531 11.9531C27.9262 11.9531 27.0938 12.7856 27.0938 13.8125C27.0938 14.8394 27.9262 15.6719 28.9531 15.6719Z" fill="#FF6E91"/>
<path d="M22.0469 15.6719C23.0738 15.6719 23.9062 14.8394 23.9062 13.8125C23.9062 12.7856 23.0738 11.9531 22.0469 11.9531C21.02 11.9531 20.1875 12.7856 20.1875 13.8125C20.1875 14.8394 21.02 15.6719 22.0469 15.6719Z" fill="#FF6E91"/>
<path d="M25.5 12.2188C26.5269 12.2188 27.3594 11.3863 27.3594 10.3594C27.3594 9.33247 26.5269 8.5 25.5 8.5C24.4731 8.5 23.6406 9.33247 23.6406 10.3594C23.6406 11.3863 24.4731 12.2188 25.5 12.2188Z" fill="#00D2D2"/>
<path d="M25.5 19.125C26.5269 19.125 27.3594 18.2925 27.3594 17.2656C27.3594 16.2387 26.5269 15.4062 25.5 15.4062C24.4731 15.4062 23.6406 16.2387 23.6406 17.2656C23.6406 18.2925 24.4731 19.125 25.5 19.125Z" fill="#00D2D2"/>
<path d="M19.6562 21.6042C20.732 21.6042 21.6041 20.7321 21.6041 19.6563C21.6041 18.5805 20.732 17.7084 19.6562 17.7084C18.5804 17.7084 17.7083 18.5805 17.7083 19.6563C17.7083 20.7321 18.5804 21.6042 19.6562 21.6042Z" fill="#463C4B"/>
<path d="M14.3437 21.6042C15.4195 21.6042 16.2916 20.7321 16.2916 19.6563C16.2916 18.5805 15.4195 17.7084 14.3437 17.7084C13.2679 17.7084 12.3958 18.5805 12.3958 19.6563C12.3958 20.7321 13.2679 21.6042 14.3437 21.6042Z" fill="#463C4B"/>
<path d="M9.90821 11.8465L9.00336 12.6221C8.90707 12.7046 8.78442 12.75 8.65765 12.75H8.34235C8.21552 12.75 8.09293 12.7046 7.99664 12.6221L7.09179 11.8465C6.97405 11.7456 6.90625 11.5982 6.90625 11.4432V9.03125C6.90625 8.73787 7.14412 8.5 7.4375 8.5H9.5625C9.85588 8.5 10.0938 8.73787 10.0938 9.03125V11.4432C10.0938 11.5982 10.0259 11.7456 9.90821 11.8465Z" fill="#463C4B"/>
<path d="M9.90821 15.7785L9.00336 15.0029C8.90707 14.9204 8.78442 14.875 8.65765 14.875H8.34235C8.21552 14.875 8.09293 14.9204 7.99664 15.0029L7.09179 15.7785C6.97405 15.8794 6.90625 16.0268 6.90625 16.1818V18.5938C6.90625 18.8871 7.14412 19.125 7.4375 19.125H9.5625C9.85588 19.125 10.0938 18.8871 10.0938 18.5938V16.1818C10.0938 16.0268 10.0259 15.8794 9.90821 15.7785Z" fill="#463C4B"/>
<path d="M6.53404 12.4043L7.3096 13.3091C7.39214 13.4054 7.4375 13.5281 7.4375 13.6549V13.9701C7.4375 14.097 7.39214 14.2196 7.3096 14.3159L6.53404 15.2207C6.43311 15.3384 6.28575 15.4062 6.13069 15.4062H3.71875C3.42537 15.4062 3.1875 15.1684 3.1875 14.875V12.75C3.1875 12.4566 3.42537 12.2188 3.71875 12.2188H6.13069C6.28575 12.2188 6.43311 12.2866 6.53404 12.4043Z" fill="#463C4B"/>
<path d="M10.466 12.4043L9.6904 13.3091C9.60786 13.4054 9.5625 13.5281 9.5625 13.6549V13.9701C9.5625 14.097 9.60786 14.2196 9.6904 14.3159L10.466 15.2207C10.5669 15.3384 10.7143 15.4062 10.8693 15.4062H13.2812C13.5746 15.4062 13.8125 15.1684 13.8125 14.875V12.75C13.8125 12.4566 13.5746 12.2188 13.2812 12.2188H10.8693C10.7143 12.2188 10.5669 12.2866 10.466 12.4043Z" fill="#463C4B"/>
</svg>
