<svg width="81" height="99" viewBox="0 0 81 99" fill="none" xmlns="http://www.w3.org/2000/svg">
<path d="M61.3741 0L51.3733 24.4672H30.6004L39.8336 0H61.3741Z" fill="#AB322F"/>
<path d="M52.3245 20.2251H29.8328C29.4815 20.2246 29.1336 20.2933 28.809 20.4273C28.4844 20.5613 28.1895 20.7579 27.9411 21.0058C27.6927 21.2538 27.4958 21.5482 27.3616 21.8723C27.2274 22.1964 27.1586 22.5437 27.1591 22.8944V37.1941H55.0019V22.8944C55.0009 22.1861 54.7184 21.5072 54.2164 21.0067C53.7144 20.5062 53.034 20.2251 52.3245 20.2251ZM53.0223 25.4647H28.6098V24.3647C28.6098 23.7939 28.8369 23.2464 29.2412 22.8428C29.6455 22.4391 30.1939 22.2124 30.7657 22.2124H50.8664C51.4382 22.2124 51.9866 22.4391 52.3909 22.8428C52.7952 23.2464 53.0223 23.7939 53.0223 24.3647V25.4647Z" fill="#F28F0E"/>
<path d="M20.9302 0L30.6005 24.4672H51.3734L41.9198 0H20.9302Z" fill="#FA352C"/>
<path d="M35.408 24.4672L24.7939 0H23.5929L34.207 24.4672H35.408Z" fill="#FCE0E0"/>
<path d="M39.9034 24.4672L29.2892 0H28.0883L38.7024 24.4672H39.9034Z" fill="#FCE0E0"/>
<path d="M44.8726 24.4672L34.2584 0H33.0574L43.6716 24.4672H44.8726Z" fill="#FCE0E0"/>
<path d="M49.2651 24.4672L38.651 0H37.45L48.0642 24.4672H49.2651Z" fill="#FCE0E0"/>
<path d="M67.4981 72.047C74.955 57.1612 68.9126 39.059 54.0019 31.6145C39.0913 24.17 20.9589 30.2024 13.5019 45.0881C6.04503 59.9739 12.0874 78.0761 26.9981 85.5206C41.9087 92.965 60.0411 86.9327 67.4981 72.047Z" fill="#FFB10F"/>
<path d="M64.764 40.637C69.0086 47.2148 70.5244 55.1827 68.991 62.8561C67.4576 70.5295 62.9951 77.3067 56.5471 81.7549C50.0992 86.2031 42.1711 87.9734 34.4393 86.6917C26.7075 85.4099 19.7781 81.1765 15.1162 74.8866C17.3078 78.2829 20.161 81.2046 23.5062 83.4782C26.8514 85.7517 30.6203 87.3306 34.5889 88.121C38.5575 88.9114 42.6448 88.8973 46.6078 88.0793C50.5708 87.2613 54.3286 85.6563 57.6578 83.3596C60.9871 81.0629 63.8199 78.1214 65.9878 74.7099C68.1557 71.2985 69.6144 67.4868 70.2774 63.5013C70.9403 59.5158 70.7938 55.438 69.8467 51.5101C68.8995 47.5823 67.171 43.8846 64.764 40.637Z" fill="#FF930F"/>
<path d="M62.5182 69.5607C68.5997 57.4206 63.6718 42.6573 51.5115 36.586C39.3511 30.5147 24.5632 35.4343 18.4817 47.5744C12.4002 59.7144 17.3281 74.4777 29.4885 80.549C41.6488 86.6204 56.4367 81.7007 62.5182 69.5607Z" fill="#FFDC01"/>
<path d="M37.483 75.2787C38.0913 75.8035 38.5181 76.5067 38.7023 77.288C37.8891 77.284 37.0972 77.0277 36.4363 76.5547C35.8279 76.0299 35.4012 75.3267 35.2169 74.5454C36.0298 74.5513 36.8212 74.8074 37.483 75.2787Z" fill="#FFF375"/>
<path d="M36.3224 77.2405C37.1033 77.0134 37.9349 77.03 38.706 77.2881C38.2664 77.9695 37.6243 78.4964 36.8697 78.7951C36.0891 79.0243 35.2568 79.0077 34.4861 78.7474C34.9257 78.0661 35.5678 77.5392 36.3224 77.2405Z" fill="#FFF375"/>
<path d="M33.7259 74.2595C34.2556 74.8634 34.5797 75.6196 34.6514 76.4192C33.8485 76.3063 33.1004 75.9476 32.5102 75.3925C31.9803 74.7902 31.6562 74.0351 31.5847 73.2366C32.3868 73.3498 33.1345 73.707 33.7259 74.2595Z" fill="#FFF375"/>
<path d="M32.2826 76.0488C33.0864 75.9261 33.9086 76.0542 34.6368 76.4155C34.1097 77.0282 33.4052 77.4625 32.6204 77.6585C31.8166 77.7805 30.9946 77.6525 30.2662 77.2918C30.793 76.6788 31.4976 76.2444 32.2826 76.0488Z" fill="#FFF375"/>
<path d="M30.7694 72.8C31.194 73.4789 31.392 74.2749 31.335 75.0733C30.5613 74.8386 29.8798 74.3696 29.3847 73.7313C28.9598 73.0511 28.7618 72.2539 28.8191 71.4543C29.5928 71.6911 30.274 72.1612 30.7694 72.8Z" fill="#FFF375"/>
<path d="M29.0726 74.3438C29.8845 74.349 30.6749 74.6052 31.335 75.0771C30.7373 75.6345 29.9594 75.9598 29.1422 75.9941C28.325 76.0284 27.5225 75.7694 26.88 75.2641C27.4978 74.7381 28.264 74.4166 29.0726 74.3438Z" fill="#FFF375"/>
<path d="M28.0074 70.5782C28.2549 71.3384 28.2549 72.1573 28.0074 72.9175C27.314 72.5052 26.7679 71.8856 26.4465 71.1465C26.199 70.3863 26.199 69.5674 26.4465 68.8073C27.1399 69.2196 27.6859 69.8391 28.0074 70.5782Z" fill="#FFF375"/>
<path d="M25.9801 71.6707C26.7655 71.8672 27.4702 72.3029 27.9964 72.9174C27.2678 73.2775 26.446 73.4055 25.6422 73.284C24.8563 73.0865 24.1515 72.6495 23.6259 72.0337C24.3543 71.6732 25.1766 71.5464 25.9801 71.6707Z" fill="#FFF375"/>
<path d="M25.9177 68.0005C25.9747 68.7994 25.7753 69.5956 25.3484 70.2738C24.7429 69.7378 24.3554 68.9987 24.2592 68.1966C24.1631 67.3944 24.3651 66.5849 24.8269 65.9215C25.4008 66.4825 25.7825 67.2101 25.9177 68.0005Z" fill="#FFF375"/>
<path d="M23.6847 68.5945C24.4014 68.9671 24.9832 69.5543 25.3484 70.2738C24.5556 70.4555 23.7258 70.3889 22.9722 70.0832C22.2552 69.7123 21.6742 69.1245 21.3121 68.4039C22.1038 68.222 22.9324 68.2886 23.6847 68.5945Z" fill="#FFF375"/>
<path d="M24.1365 64.7595C24.0275 65.5543 23.6702 66.2947 23.1154 66.8751C22.6297 66.2282 22.3988 65.4257 22.4665 64.6201C22.5342 63.8144 22.8958 63.0616 23.4827 62.5045C23.9339 63.1683 24.1627 63.9577 24.1365 64.7595Z" fill="#FFF375"/>
<path d="M21.8299 64.8986C22.4558 65.4046 22.9056 66.0949 23.1153 66.8712C22.3034 66.8945 21.5042 66.6665 20.8272 66.2186C20.2008 65.7139 19.7497 65.0249 19.5381 64.2496C20.3506 64.2259 21.1508 64.4525 21.8299 64.8986Z" fill="#FFF375"/>
<path d="M23.2182 61.6647C22.982 62.4335 22.5107 63.1092 21.8703 63.597C21.5314 62.8703 21.4336 62.0547 21.5912 61.2687C21.8266 60.5006 22.2982 59.8258 22.939 59.3401C23.2757 60.0661 23.3734 60.8798 23.2182 61.6647Z" fill="#FFF375"/>
<path d="M20.9154 61.4521C21.4532 62.0481 21.7876 62.7992 21.8703 63.5971C21.0651 63.4936 20.3111 63.1454 19.7108 62.5998C19.1756 62.0025 18.8427 61.2519 18.7595 60.4548C19.5641 60.5568 20.3173 60.9052 20.9154 61.4521Z" fill="#FFF375"/>
<path d="M23.1191 58.2182C22.6995 58.9087 22.0741 59.451 21.3305 59.7691C21.1833 58.9828 21.29 58.1701 21.6353 57.4482C22.0537 56.758 22.6778 56.2157 23.4202 55.8972C23.5699 56.6831 23.4643 57.4962 23.1191 58.2182Z" fill="#FFF375"/>
<path d="M20.9375 57.463C21.3102 58.1707 21.4478 58.9783 21.3305 59.7693C20.5813 59.4815 19.9398 58.9691 19.4941 58.3026C19.1192 57.5957 18.9802 56.7877 19.0975 55.9963C19.848 56.2835 20.4909 56.7959 20.9375 57.463Z" fill="#FFF375"/>
<path d="M23.7324 54.7419C23.1622 55.3177 22.4268 55.7022 21.6279 55.8419C21.6689 55.0371 21.9661 54.2664 22.4763 53.642C23.0489 53.0675 23.7851 52.6833 24.5845 52.542C24.5427 53.3473 24.2442 54.1181 23.7324 54.7419Z" fill="#FFF375"/>
<path d="M21.7933 53.4992C21.9879 54.2755 21.93 55.0936 21.628 55.8348C20.963 55.3798 20.4591 54.7266 20.1883 53.9686C19.9939 53.1922 20.0517 52.3743 20.3535 51.6329C21.0175 52.089 21.5211 52.7419 21.7933 53.4992Z" fill="#FFF375"/>
<path d="M24.9959 51.8822C24.3068 52.3127 23.5012 52.5202 22.6895 52.4762C22.9197 51.7054 23.3875 51.0267 24.0263 50.5366C24.7155 50.106 25.521 49.8985 26.3328 49.9426C26.101 50.7126 25.6335 51.3909 24.9959 51.8822Z" fill="#FFF375"/>
<path d="M23.3945 50.2321C23.4029 51.0334 23.156 51.8166 22.6894 52.4687C22.1168 51.8982 21.7736 51.1379 21.7249 50.3318C21.6761 49.5256 21.9252 48.7296 22.425 48.0945C22.9654 48.6874 23.3047 49.4355 23.3945 50.2321Z" fill="#FFF375"/>
<path d="M26.5714 49.2937C25.8231 49.612 24.9947 49.6926 24.1989 49.5247C24.5518 48.7989 25.1233 48.2015 25.8332 47.8161C26.5804 47.4979 27.4079 47.4185 28.2021 47.5887C27.8505 48.3133 27.2802 48.9096 26.5714 49.2937Z" fill="#FFF375"/>
<path d="M25.2566 47.4237C25.1352 48.218 24.7649 48.9535 24.1989 49.5246C23.7247 48.8693 23.508 48.0629 23.59 47.2586C23.6719 46.4543 24.0467 45.7081 24.6433 45.1614C25.0815 45.8321 25.2961 46.6239 25.2566 47.4237Z" fill="#FFF375"/>
<path d="M44.1638 75.1137C43.5554 75.6393 43.1297 76.3441 42.9481 77.1266C43.7599 77.1204 44.5499 76.8644 45.2105 76.3933C45.8207 75.8686 46.2477 75.1636 46.4298 74.3804C45.6169 74.3863 44.8256 74.6424 44.1638 75.1137Z" fill="#FFF375"/>
<path d="M45.328 77.0791C44.5488 76.8497 43.7175 76.8663 42.9481 77.1268C43.3868 77.8089 44.0292 78.3361 44.7845 78.6337C45.565 78.8632 46.3974 78.8465 47.1681 78.5861C46.7286 77.9031 46.0848 77.3758 45.328 77.0791Z" fill="#FFF375"/>
<path d="M47.4473 74.2595C46.9175 74.8634 46.5934 75.6196 46.5217 76.4192C47.3244 76.3056 48.0724 75.947 48.6629 75.3925C49.1928 74.7902 49.517 74.0351 49.5884 73.2366C48.7862 73.3491 48.0383 73.7064 47.4473 74.2595Z" fill="#FFF375"/>
<path d="M48.8723 76.0489C48.0696 75.9265 47.2487 76.0545 46.5217 76.4156C47.0488 77.0283 47.7533 77.4626 48.5381 77.6586C49.3419 77.7806 50.1639 77.6526 50.8923 77.2919C50.3646 76.6782 49.6586 76.2438 48.8723 76.0489Z" fill="#FFF375"/>
<path d="M50.3964 72.6791C49.9713 73.3579 49.7732 74.154 49.8308 74.9524C50.6052 74.7172 51.2869 74.2468 51.781 73.6068C52.208 72.9288 52.4063 72.1321 52.3466 71.3335C51.5727 71.5696 50.8912 72.0398 50.3964 72.6791Z" fill="#FFF375"/>
<path d="M52.1152 74.2228C51.3022 74.2285 50.5108 74.4846 49.8491 74.9561C50.4475 75.5139 51.2264 75.8392 52.0444 75.8728C52.8625 75.9065 53.6655 75.6463 54.3078 75.1394C53.6892 74.6152 52.9233 74.295 52.1152 74.2228Z" fill="#FFF375"/>
<path d="M53.0664 70.5123C52.8166 71.2734 52.8166 72.0942 53.0664 72.8552C53.7589 72.4418 54.3046 71.8226 54.6273 71.0843C54.8758 70.323 54.8758 69.5026 54.6273 68.7413C53.935 69.155 53.3893 69.7741 53.0664 70.5123Z" fill="#FFF375"/>
<path d="M55.0938 71.6048C54.3079 71.8024 53.6032 72.2394 53.0775 72.8552C53.8056 73.217 54.6279 73.345 55.4317 73.2218C56.2176 73.0264 56.9227 72.5905 57.448 71.9752C56.72 71.6133 55.898 71.484 55.0938 71.6048Z" fill="#FFF375"/>
<path d="M55.2665 67.7659C55.2119 68.565 55.4125 69.3609 55.8394 70.0391C56.4459 69.503 56.8341 68.7632 56.9302 67.9602C57.0263 67.1572 56.8238 66.347 56.361 65.6832C55.7857 66.2451 55.4027 66.9739 55.2665 67.7659Z" fill="#FFF375"/>
<path d="M57.4994 68.36C56.7835 68.7323 56.2028 69.3197 55.8394 70.0393C56.6322 70.2209 57.4619 70.1544 58.2156 69.8486C58.9308 69.4753 59.5112 68.8881 59.8757 68.1693C59.0828 67.9874 58.253 68.054 57.4994 68.36Z" fill="#FFF375"/>
<path d="M56.8457 64.697C56.9551 65.4924 57.3138 66.2329 57.8703 66.8126C58.355 66.1659 58.5853 65.3643 58.5176 64.5595C58.4499 63.7547 58.089 63.0026 57.5031 62.4457C57.0521 63.1083 56.822 63.8962 56.8457 64.697Z" fill="#FFF375"/>
<path d="M59.1558 64.8435C58.5298 65.3479 58.0798 66.0371 57.8704 66.8125C58.6817 66.8359 59.4806 66.6093 60.1585 66.1635C60.7849 65.6589 61.236 64.9699 61.4476 64.1946C60.635 64.1709 59.8349 64.3975 59.1558 64.8435Z" fill="#FFF375"/>
<path d="M57.7675 61.5988C58.0021 62.3684 58.4737 63.0445 59.1154 63.5311C59.454 62.8056 59.5518 61.9912 59.3945 61.2065C59.16 60.4369 58.6883 59.7607 58.0466 59.2742C57.71 60.0002 57.6123 60.8139 57.7675 61.5988Z" fill="#FFF375"/>
<path d="M60.0703 61.3862C59.5325 61.9822 59.1981 62.7333 59.1154 63.5312C59.9194 63.4274 60.6721 63.0792 61.2712 62.5339C61.8084 61.9375 62.1426 61.1866 62.2261 60.3889C61.4215 60.4908 60.6683 60.8393 60.0703 61.3862Z" fill="#FFF375"/>
<path d="M57.8519 58.2696C58.2716 58.9586 58.8953 59.5005 59.6368 59.8205C59.784 59.033 59.6773 58.2191 59.332 57.4959C58.9122 56.8069 58.2886 56.2649 57.547 55.9449C57.3998 56.7325 57.5066 57.5464 57.8519 58.2696Z" fill="#FFF375"/>
<path d="M60.0336 57.5105C59.6588 58.2188 59.5199 59.0279 59.6369 59.8204C60.3858 59.5322 61.0272 59.0199 61.4733 58.3538C61.848 57.6454 61.9869 56.8363 61.8699 56.0438C61.121 56.332 60.4796 56.8443 60.0336 57.5105Z" fill="#FFF375"/>
<path d="M57.2055 54.79C57.7773 55.3655 58.5139 55.7498 59.3136 55.89C59.2704 55.0851 58.972 54.3147 58.4615 53.6901C57.8894 53.115 57.153 52.7308 56.3534 52.5901C56.3976 53.3948 56.6959 54.1649 57.2055 54.79Z" fill="#FFF375"/>
<path d="M59.1448 53.5322C58.9503 54.3088 59.0095 55.1272 59.3138 55.8678C59.9777 55.4117 60.4813 54.7589 60.7535 54.0015C60.9454 53.2247 60.8863 52.4071 60.5845 51.6659C59.9216 52.1231 59.4183 52.7756 59.1448 53.5322Z" fill="#FFF375"/>
<path d="M55.9789 51.9776C56.6681 52.4082 57.4736 52.6156 58.2854 52.5716C58.0552 51.8008 57.5874 51.1221 56.9485 50.632C56.2599 50.2035 55.4561 49.9962 54.6458 50.038C54.8754 50.8081 55.3418 51.4866 55.9789 51.9776Z" fill="#FFF375"/>
<path d="M57.5802 50.3349C57.5718 51.1362 57.8187 51.9194 58.2853 52.5715C58.8579 52.001 59.2011 51.2407 59.2498 50.4345C59.2986 49.6284 59.0495 48.8324 58.5498 48.1973C58.0093 48.7902 57.67 49.5382 57.5802 50.3349Z" fill="#FFF375"/>
<path d="M54.3188 49.411C55.0678 49.7271 55.8958 49.8064 56.6914 49.6383C56.3395 48.9139 55.7693 48.3176 55.0607 47.9333C54.3123 47.6151 53.484 47.5344 52.6881 47.7023C53.0391 48.4283 53.6095 49.0259 54.3188 49.411Z" fill="#FFF375"/>
<path d="M55.6263 47.541C55.7499 48.3335 56.1199 49.0672 56.6841 49.6383C57.1582 48.9829 57.3749 48.1766 57.293 47.3723C57.211 46.568 56.8362 45.8217 56.2397 45.275C55.801 45.9469 55.5863 46.74 55.6263 47.541Z" fill="#FFF375"/>
<path d="M53.4227 45.7151C53.3684 45.77 53.3108 45.8214 53.2501 45.8691L53.1913 45.9094C55.1484 47.537 56.7257 49.5718 57.8131 51.8714C58.9004 54.171 59.4715 56.6799 59.4863 59.2228C59.4863 69.1226 50.9546 77.1561 40.469 77.1561C29.9834 77.1561 21.448 69.1116 21.448 59.2228C21.4605 56.7929 21.9823 54.3925 22.9798 52.1761C23.9773 49.9596 25.4284 47.9761 27.2399 46.3531C27.1335 46.3224 27.0302 46.2819 26.9314 46.2321C25.1187 47.8797 23.6683 49.885 22.6719 52.1211C21.6756 54.3572 21.155 56.7755 21.1432 59.2228C21.1432 69.2693 29.8108 77.4458 40.469 77.4458C51.1272 77.4458 59.7912 69.2693 59.7912 59.2228C59.7765 56.6446 59.1991 54.1005 58.0993 51.7677C56.9994 49.4349 55.4035 47.3694 53.4227 45.7151Z" fill="#FFF375"/>
<path d="M29.1313 47.0056C28.3289 47.1371 27.5055 47.018 26.7734 46.6646C27.2941 46.0446 27.9948 45.6012 28.7787 45.396C29.5815 45.2669 30.4046 45.3872 31.1366 45.7406C30.6163 46.3603 29.9153 46.8025 29.1313 47.0056Z" fill="#FFF375"/>
<path d="M28.316 44.8791C28.0017 45.6208 27.4622 46.2454 26.7734 46.6647C26.5131 45.9071 26.5015 45.0864 26.7404 44.3218C27.054 43.5806 27.5938 42.957 28.2829 42.5398C28.5432 43.2961 28.5548 44.1157 28.316 44.8791Z" fill="#FFF375"/>
<path d="M51.8838 47.0056C52.6862 47.1371 53.5097 47.018 54.2417 46.6646C53.7211 46.0446 53.0204 45.6012 52.2364 45.396C51.4336 45.2669 50.6105 45.3872 49.8785 45.7406C50.3989 46.3603 51.0999 46.8025 51.8838 47.0056Z" fill="#FFF375"/>
<path d="M52.6991 44.8792C53.0133 45.621 53.5529 46.2455 54.2416 46.6648C54.5429 45.9113 54.5555 45.0733 54.277 44.311C53.9986 43.5488 53.4486 42.9156 52.7321 42.5326C52.4702 43.2912 52.4586 44.1136 52.6991 44.8792Z" fill="#FFF375"/>
<path d="M39.4186 47.7755H43.668V68.1984H38.6841V53.2791L34.8828 55.864L32.4662 52.3294L39.4186 47.7755Z" fill="#FFF375"/>
</svg>
