<svg width="18" height="18" viewBox="0 0 18 18" fill="none" xmlns="http://www.w3.org/2000/svg">
<path fill-rule="evenodd" clip-rule="evenodd" d="M6.89453 5.53008C6.89453 2.60527 9.26968 0.25 12.2812 0.25C15.2773 0.25 17.75 2.58237 17.75 5.52227C17.75 8.46062 15.2789 10.8035 12.2812 10.8035C11.6244 10.8035 11.0707 10.7195 10.5009 10.5158C10.4811 10.5297 10.4592 10.5448 10.4347 10.5616C10.3156 10.6427 10.1097 10.7769 9.87033 10.8285C9.74258 10.8561 9.62538 10.8444 9.57142 10.838C9.50224 10.8299 9.4326 10.8162 9.37157 10.8027C9.25312 10.7764 9.11825 10.7392 9.00272 10.7073L8.99387 10.7048C8.92968 10.6871 8.87096 10.6709 8.81771 10.6569C8.83451 10.6941 8.85433 10.7357 8.87733 10.7828C8.88561 10.7997 8.89467 10.818 8.90427 10.8374C8.9488 10.9275 9.00472 11.0406 9.04576 11.1414C9.07198 11.2058 9.10153 11.2871 9.12107 11.3758C9.13937 11.4588 9.15944 11.5936 9.1269 11.7463C9.0886 11.926 8.99356 12.0864 8.91965 12.1945C8.83562 12.3174 8.73044 12.442 8.61441 12.5559C8.40878 12.7576 8.06019 13.0324 7.64654 13.0806C7.38632 13.1109 7.15638 13.032 7.0199 12.9778C6.96654 12.9567 6.91467 12.9338 6.86799 12.9125C6.87083 12.9193 6.87364 12.9261 6.87641 12.9328C6.92152 13.0426 6.99648 13.2387 6.99209 13.4633C6.98337 13.9952 6.67175 14.3175 6.45248 14.5195C6.33126 14.6328 6.1759 14.7737 5.98416 14.8773C5.77131 14.9923 5.54069 15.0488 5.27763 15.0457L5.27725 15.0457C5.07177 15.0431 4.85051 14.9954 4.71015 14.9651C4.69263 14.9613 4.67637 14.9578 4.66156 14.9547C4.57952 14.9375 4.52446 14.9272 4.48253 14.9223C4.47955 14.922 4.4768 14.9217 4.47427 14.9214C4.47455 14.9238 4.47483 14.9262 4.47514 14.9286C4.48313 14.9933 4.49075 15.0352 4.50035 15.088C4.50947 15.1382 4.5204 15.1983 4.53516 15.2973C4.57211 15.5451 4.6535 16.1361 4.21911 16.562C4.13548 16.6443 4.07044 16.7129 3.98448 16.8034C3.95364 16.8359 3.92011 16.8712 3.88206 16.9111C3.74088 17.0588 3.55495 17.2497 3.24859 17.5481L3.247 17.5496L3.24569 17.5509C3.00058 17.7866 2.7019 17.758 2.57859 17.7341C2.43919 17.707 2.31475 17.6491 2.22523 17.6015C2.03859 17.5021 1.83848 17.3564 1.66334 17.2175C1.30706 16.9349 0.946177 16.5932 0.798349 16.4387C0.572308 16.2023 0.25 15.7346 0.25 15.1746L0.25 15.1742C0.250127 14.9759 0.291981 14.7799 0.372841 14.5989C0.45173 14.4223 0.566025 14.2638 0.708595 14.1332C0.795043 14.0478 1.12235 13.6798 1.62533 13.1013C2.12514 12.5265 2.7711 11.7758 3.45758 10.9749C4.72086 9.50101 6.11859 7.85999 6.98969 6.83724C6.89424 6.39176 6.89439 5.94919 6.89452 5.57109C6.89453 5.55734 6.89453 5.54366 6.89453 5.53008ZM4.47013 14.8623C4.47014 14.8623 4.47014 14.8628 4.47008 14.8637C4.4701 14.8628 4.47013 14.8623 4.47013 14.8623ZM8.75254 10.479C8.75257 10.479 8.75272 10.4798 8.75288 10.4814C8.7526 10.4797 8.75251 10.4789 8.75254 10.479ZM8.60298 10.6081C8.60343 10.6082 8.6039 10.6082 8.60441 10.6083C8.59535 10.6078 8.59413 10.6071 8.60298 10.6081ZM12.2812 1.5C9.94126 1.5 8.14453 3.31426 8.14453 5.53008C8.14453 6.05838 8.1505 6.44176 8.27007 6.78588C8.34282 6.99528 8.29922 7.22754 8.15548 7.39629C8.09195 7.47088 8.02447 7.5501 7.95343 7.63351C7.08335 8.65507 5.67722 10.306 4.40667 11.7884C3.71962 12.59 3.07139 13.3433 2.56864 13.9215C2.07986 14.4836 1.69941 14.9146 1.57008 15.039C1.56484 15.0441 1.55952 15.049 1.55411 15.0539C1.53709 15.0691 1.52348 15.0878 1.51416 15.1087C1.50487 15.1295 1.50004 15.152 1.5 15.1748C1.50005 15.2164 1.51405 15.2825 1.55668 15.3675C1.59873 15.4513 1.65501 15.5259 1.70165 15.5746C1.81164 15.6896 2.13044 15.9925 2.44018 16.2382C2.51451 16.2972 2.58256 16.3482 2.64264 16.3904C2.78756 16.2457 2.89238 16.1374 2.97829 16.0475C3.00915 16.0152 3.03863 15.9842 3.06745 15.9538C3.14956 15.8673 3.2263 15.7864 3.31441 15.6987C3.31643 15.6725 3.31778 15.6088 3.29882 15.4816C3.29548 15.4592 3.28845 15.4179 3.28011 15.3689C3.26415 15.2752 3.24342 15.1535 3.23458 15.0819C3.21958 14.9606 3.19235 14.7069 3.29663 14.4636C3.38553 14.2561 3.50845 14.0577 3.70709 13.9099C3.90006 13.7664 4.1037 13.7186 4.23062 13.6919C4.38308 13.6598 4.52726 13.6691 4.6266 13.6807C4.73091 13.6928 4.83551 13.714 4.91852 13.7314C4.92971 13.7338 4.94059 13.7361 4.95117 13.7383C5.12631 13.7751 5.21981 13.7948 5.29284 13.7958C5.35387 13.7965 5.37324 13.7866 5.38986 13.7776C5.42664 13.7577 5.47967 13.7178 5.60037 13.6049C5.60164 13.6037 5.60291 13.6025 5.60418 13.6014C5.69136 13.5212 5.72365 13.481 5.7374 13.4588C5.73788 13.458 5.73831 13.4573 5.7387 13.4566C5.73503 13.4458 5.7292 13.4298 5.72015 13.4077C5.70707 13.3759 5.69278 13.3439 5.67378 13.3014C5.66992 13.2928 5.66587 13.2837 5.6616 13.2741C5.63851 13.2224 5.60973 13.1571 5.58336 13.0879C5.53317 12.956 5.46897 12.7539 5.48228 12.5214C5.49712 12.2622 5.60466 12.0178 5.80878 11.8179C6.03896 11.5925 6.31744 11.5096 6.58267 11.5205C6.81386 11.5301 7.01836 11.6103 7.14887 11.6666C7.20702 11.6917 7.26587 11.7191 7.31454 11.7418C7.32358 11.7461 7.33227 11.7501 7.34053 11.754C7.39835 11.7808 7.44198 11.8005 7.48059 11.8158C7.49615 11.822 7.50874 11.8265 7.51863 11.8299C7.52891 11.8249 7.54247 11.8178 7.55934 11.8076C7.6131 11.7749 7.67608 11.7253 7.7391 11.6635C7.78369 11.6197 7.82264 11.5754 7.85379 11.5354C7.83712 11.4999 7.81742 11.4599 7.79373 11.4119C7.78172 11.3875 7.76868 11.3611 7.7545 11.3321C7.69886 11.2183 7.62655 11.0668 7.57578 10.9107C7.52884 10.7665 7.47018 10.5323 7.52693 10.2798L7.52737 10.2778C7.5276 10.2768 7.52783 10.2758 7.52807 10.2748C7.56136 10.1321 7.63349 10.0165 7.67539 9.95477C7.72704 9.87866 7.78878 9.80419 7.85412 9.73698C7.95889 9.62922 8.17166 9.43672 8.44926 9.37637C8.57729 9.34854 8.69483 9.36032 8.74889 9.36667C8.81807 9.3748 8.88771 9.38845 8.94874 9.402C9.06719 9.42831 9.20206 9.46554 9.3176 9.49743L9.32644 9.49987C9.45313 9.53484 9.55851 9.56375 9.64258 9.58242C9.64367 9.58266 9.64475 9.5829 9.64581 9.58313C9.66872 9.5697 9.69649 9.55197 9.73037 9.52887C9.76973 9.50202 9.8079 9.47451 9.85254 9.44235C9.86468 9.4336 9.87731 9.4245 9.89056 9.41498C9.94713 9.37434 10.0166 9.32498 10.0876 9.28077C10.2617 9.17241 10.4778 9.15629 10.666 9.23763C11.185 9.462 11.6502 9.55352 12.2812 9.55352C14.6352 9.55352 16.5 7.72454 16.5 5.52227C16.5 3.32153 14.6368 1.5 12.2812 1.5ZM9.71733 9.59656C9.71689 9.59651 9.71641 9.59645 9.7159 9.59639C9.72496 9.59689 9.72619 9.5976 9.71733 9.59656ZM7.91903 11.4371C7.91908 11.4371 7.9188 11.4377 7.91814 11.4391C7.91867 11.4379 7.91899 11.4372 7.91903 11.4371ZM13.375 4C13.2514 4 13.1305 4.03666 13.0278 4.10533C12.925 4.17401 12.8449 4.27162 12.7976 4.38582C12.7503 4.50003 12.7379 4.62569 12.762 4.74693C12.7861 4.86817 12.8456 4.97953 12.9331 5.06694C13.0205 5.15435 13.1318 5.21388 13.2531 5.23799C13.3743 5.26211 13.5 5.24973 13.6142 5.20243C13.7284 5.15512 13.826 5.07501 13.8947 4.97223C13.9633 4.86945 14 4.74861 14 4.625C14 4.45924 13.9342 4.30027 13.8169 4.18306C13.6997 4.06585 13.5408 4 13.375 4ZM12.3333 3.06599C12.6416 2.85997 13.0042 2.75 13.375 2.75C13.8723 2.75 14.3492 2.94754 14.7008 3.29917C15.0525 3.65081 15.25 4.12772 15.25 4.625C15.25 4.99584 15.14 5.35835 14.934 5.66669C14.728 5.97504 14.4351 6.21536 14.0925 6.35727C13.7499 6.49919 13.3729 6.53632 13.0092 6.46397C12.6455 6.39162 12.3114 6.21305 12.0492 5.95082C11.787 5.6886 11.6084 5.35451 11.536 4.99079C11.4637 4.62708 11.5008 4.25008 11.6427 3.90747C11.7846 3.56486 12.025 3.27202 12.3333 3.06599Z" fill="#5D748A"/>
</svg>
