<svg width="18" height="17" viewBox="0 0 18 17" fill="none" xmlns="http://www.w3.org/2000/svg">
<path d="M2.33332 0.5C1.41249 0.5 0.666656 1.24583 0.666656 2.16667V12.1667C0.666656 13.0875 1.41249 13.8333 2.33332 13.8333H14L16.3233 16.1567C16.6958 16.5292 17.3333 16.265 17.3333 15.7383V2.16667C17.3333 1.24583 16.5875 0.5 15.6667 0.5H2.33332ZM5.66666 3.83333C6.07582 3.83333 6.44332 4.0825 6.59416 4.4625L8.60832 9.5175C8.79582 9.98833 8.44916 10.5 7.94249 10.5C7.63999 10.5 7.36916 10.31 7.26749 10.025L6.94332 9.12H4.39082L4.06582 10.025C3.96416 10.31 3.69416 10.5 3.39082 10.5C2.88416 10.5 2.53666 9.98833 2.72499 9.5175L4.73916 4.4625C4.88999 4.0825 5.25749 3.83333 5.66666 3.83333ZM12.75 3.83333C13.0667 3.83333 13.3233 4.09 13.3233 4.40583V4.9525H15.1117C15.4183 4.95333 15.6667 5.20167 15.6667 5.50833V6.04667C15.4975 7.49167 14.85 8.56917 13.7917 9.30167C13.9258 9.32333 14.0625 9.34167 14.2033 9.355C14.4883 9.3825 14.7033 9.62583 14.7033 9.9125C14.7033 10.2383 14.4258 10.5017 14.1017 10.4725C13.4575 10.4142 12.8575 10.2658 12.3333 10.0567C11.75 10.2758 11.0458 10.4108 10.4308 10.4667C10.1058 10.4958 9.82749 10.2367 9.82999 9.91C9.83166 9.61833 10.0592 9.38 10.3508 9.36C10.5983 9.34333 10.86 9.315 11.0575 9.275C10.5958 8.86083 10.1558 8.11 9.95166 7.41833C9.84499 7.0575 10.125 6.6975 10.5017 6.6975H10.5158C10.7708 6.6975 11.0008 6.8575 11.0725 7.09917C11.2533 7.70917 11.7792 8.48583 12.3858 8.8325C13.4892 8.305 14.2025 7.37083 14.4175 6.04583H10.3808C10.0783 6.04667 9.83332 5.80167 9.83332 5.5C9.83332 5.19833 10.0783 4.95333 10.38 4.95333H12.1767V4.40583C12.1767 4.09 12.4333 3.83333 12.75 3.83333ZM5.66666 5.52583L4.78082 8.02583H6.55166L5.66666 5.52583Z" fill="#5D748A"/>
</svg>
