<svg width="71" height="56" viewBox="0 0 71 56" fill="none" xmlns="http://www.w3.org/2000/svg">
<path d="M37.5439 0.0737133C38.4729 -0.055975 39.4482 -0.0361249 40.3322 0.309269C41.8448 0.895513 43.0676 2.23607 43.4302 3.82806C43.7028 5.15934 43.5387 6.62165 42.7605 7.76105C41.6555 9.54492 39.3463 10.4382 37.3203 9.91943C35.6131 9.48802 34.1495 8.13688 33.6943 6.41918C33.0697 4.38783 33.9378 2.00713 35.715 0.847874C36.2788 0.498509 36.8836 0.186198 37.5439 0.0737133Z" fill="#64B431"/>
<path d="M24.4665 3.60971C24.7431 3.44072 25.0938 3.60707 25.3598 3.78175C26.5614 4.47254 27.5235 5.49284 28.5014 6.45756C29.92 7.86428 31.1891 9.41128 32.5906 10.8352C34.0648 12.1533 36.0366 12.938 38.0229 12.8957C40.2964 12.9076 42.4694 12.1136 44.5364 11.2388C47.6278 9.91415 50.5458 8.16865 53.7721 7.17085C54.3808 7.03851 55.114 6.74909 55.6671 7.23305C55.908 7.5431 55.6526 8.12498 55.3522 8.44391C54.4192 9.492 53.3936 10.4594 52.2847 11.3196C50.3221 12.8242 48.5634 14.5697 46.8033 16.302C45.3847 17.796 43.8589 19.2199 42.7208 20.9509C42.0525 22.2173 42.4813 23.7008 42.7684 25.0149C43.8404 29.0405 45.4575 32.9153 46.2687 37.0111C46.4751 38.1425 46.6829 39.2938 46.5598 40.4478C46.5347 40.6873 46.3905 41.0288 46.0953 40.9811C45.5964 40.9441 45.2682 40.4994 44.944 40.1686C43.9595 39.0424 43.2713 37.7058 42.4416 36.4698C41.1037 34.4239 39.861 32.2999 38.2611 30.4406C37.9475 30.0701 37.5783 29.73 37.1349 29.5249C36.7326 29.3184 36.2801 29.558 35.9704 29.82C35.0652 30.6338 34.5002 31.7309 33.8398 32.7353C33.0829 33.8827 32.4066 35.079 31.6748 36.2409C30.6664 37.7415 29.8354 39.3468 28.9434 40.9163C28.5213 41.6467 27.898 42.3203 27.0801 42.5956C26.662 42.7451 26.1406 42.6869 25.8441 42.3296C25.4021 41.8942 25.4683 41.2153 25.5464 40.6556C25.7409 39.7689 26.0717 38.9193 26.3377 38.0539C27.8265 33.3917 29.3722 28.6912 29.8314 23.7921C29.9399 22.7136 29.92 21.6271 29.887 20.5459C29.7096 18.504 29.0149 16.5534 28.2659 14.661C27.5155 12.8229 26.6911 11.0165 25.864 9.21145C25.2579 7.7915 24.5512 6.37816 24.3474 4.82852C24.2892 4.41828 24.19 3.77871 24.4665 3.60971Z" fill="#64B431"/>
<path d="M25.4498 44.7977C31.2288 43.9494 37.1204 43.9256 42.9167 44.6336C45.6639 45.0041 48.4059 45.4845 51.0778 46.2282C51.0381 47.046 50.9018 47.8572 50.9256 48.679C48.877 48.2212 46.8391 47.7024 44.7614 47.3901C38.5853 46.3738 32.2584 46.338 26.0598 47.1757C25.8415 46.387 25.6086 45.5996 25.4498 44.7977Z" fill="#64B431"/>
<path d="M17.4753 46.3923C17.7995 46.305 18.1304 46.2402 18.4652 46.2097C18.8555 46.9283 19.3227 47.6072 19.6416 48.3628C13.8731 49.8092 8.20656 51.834 3.05211 54.8313C2.48307 55.1609 1.6348 55.0206 1.33176 54.396C1.00092 53.8825 1.18751 53.1692 1.66789 52.8212C2.10459 52.5022 2.58497 52.2482 3.05741 51.9861C7.61634 49.5525 12.4863 47.7276 17.4753 46.3923Z" fill="#64B431"/>
<path d="M56.9164 48.0596C58.5349 48.5611 60.0792 49.281 61.6381 49.944C63.8508 50.9418 66.0092 52.0614 68.1146 53.2709C68.6095 53.5581 69.2394 53.8175 69.4022 54.4275C69.606 55.0614 69.1825 55.7734 68.5487 55.9401C68.0074 56.1519 67.5045 55.7509 67.0453 55.518C65.0537 54.3177 62.9588 53.2987 60.86 52.3022C59.0788 51.4659 57.2221 50.8095 55.4052 50.0605C55.9504 49.4266 56.4506 48.7543 56.9164 48.0596Z" fill="#64B431"/>
<path d="M13.324 15.2486C14.5177 15.0845 15.7801 15.4736 16.6085 16.3629C18.0364 17.7219 18.0907 20.1913 16.7872 21.651C15.5896 23.0709 13.3333 23.4004 11.7744 22.3947C10.8096 21.8111 10.1744 20.7709 9.98651 19.6699C9.6345 17.6174 11.2106 15.4167 13.324 15.2486Z" fill="#019FE3"/>
<path d="M22.4988 19.1273C23.0943 18.6006 23.658 17.9905 24.4136 17.698C24.6163 17.6196 24.8755 17.6005 24.9681 17.7748C25.2063 18.1299 24.714 19.8591 24.325 20.8251C23.2782 23.3037 22.0329 25.7043 21.1926 28.2663C20.7361 29.636 20.4661 31.0837 20.5429 32.5315C20.7506 37.4318 22.4763 42.0794 23.9372 46.7098C24.0735 47.2286 24.1715 47.8334 23.8843 48.3203C23.5892 48.7941 22.8891 48.7015 22.4577 48.4818C21.4229 47.9022 21.0338 46.7098 20.4582 45.7451C19.2446 43.7019 18.0139 41.6679 16.721 39.6736C16.3796 39.1945 16.0699 38.6533 15.5551 38.341C15.2322 38.198 14.8075 38.1875 14.5203 38.419C13.8798 38.8835 13.4391 39.5545 12.972 40.1804C11.5652 42.1112 10.3928 44.1981 9.04426 46.1673C8.63138 46.6609 7.87046 47.5744 7.50124 47.353C7.14261 47.1112 7.23392 46.5735 7.29083 46.1633C7.66004 42.0186 9.48362 38.2086 10.455 34.2015C10.6548 33.2262 10.889 32.0696 10.2234 31.2161C9.02971 29.5698 7.56609 28.1406 6.11569 26.7246C5.01334 25.6606 3.866 24.6403 2.66175 23.6915C1.77908 22.9517 0.852733 22.2265 0.188412 21.2724C0.0243162 21.058 -0.0696406 20.7766 0.0626918 20.5207C0.261194 20.2472 1.26429 20.3805 1.83333 20.5591C2.86819 20.8886 3.84747 21.3624 4.84131 21.7951C7.42316 22.9795 9.94282 24.4551 12.7788 24.9394C14.5481 25.2729 16.4603 24.8852 17.9213 23.8199C18.718 23.2535 19.3002 22.4555 19.9659 21.7515C20.8102 20.8767 21.5856 19.9345 22.4988 19.1273Z" fill="#019FE3"/>
<path d="M58.9783 16.9821C59.7683 16.9199 60.602 16.9159 61.3179 17.309C62.6082 17.9018 63.4829 19.2556 63.5068 20.6742C63.6669 22.7889 61.7255 24.8269 59.591 24.6787C58.4555 24.7435 57.3704 24.1493 56.6386 23.3117C55.4436 21.938 55.429 19.6963 56.628 18.32C57.2288 17.6332 58.0532 17.08 58.9783 16.9821Z" fill="#F99D04"/>
<path d="M69.6868 19.5877C69.9316 19.4302 70.3987 19.2546 70.5112 19.4712C70.6865 19.8088 70.4755 21.2194 70.1394 22.0253C69.0767 24.6455 67.7626 27.1625 66.8442 29.841C66.4551 31.0068 66.1243 32.219 66.1481 33.459C66.16 34.3258 66.1098 35.1979 66.25 36.0581C66.7886 40.0493 68.0564 43.8897 69.3109 47.7009C69.5518 48.4023 69.7212 49.1592 69.5611 49.8977C69.3705 50.2563 68.9219 50.5871 68.509 50.3899C67.7944 50.1782 67.2531 49.6039 66.8852 48.9779C65.8795 47.0975 64.7388 45.2964 63.6311 43.4768C62.8874 42.3678 62.2972 41.1344 61.3298 40.1949C61.0863 39.9011 60.6629 39.9368 60.3333 40.0241C59.8252 40.2875 59.4692 40.7507 59.1211 41.1887C58.7281 41.6876 58.306 42.1653 57.9659 42.7026C57.3452 43.7388 56.6624 44.7366 56.0325 45.7675C55.3377 46.8248 54.7528 47.9894 53.796 48.8429C53.5975 49.0467 53.1788 49.1401 53.0457 49.0362C52.7982 48.8429 52.8921 48 52.9318 47.4799C53.2428 44.5037 54.3386 41.6969 55.2001 38.8517C55.691 37.2729 56.3315 35.673 56.219 33.9883C56.2124 33.3148 55.7162 32.7987 55.3284 32.2984C54.2459 30.9155 52.9583 29.7139 51.7197 28.474C50.7682 27.5714 49.822 26.661 48.7871 25.8537C47.7681 25.0359 46.7756 24.1744 45.9181 23.1858C45.6839 22.9357 45.5198 22.4968 45.6058 22.2688C45.8506 21.8351 47.2666 22.196 48.0302 22.4858C49.245 22.8616 50.3487 23.5048 51.496 24.0394C53.7761 25.0875 56.0285 26.3434 58.5508 26.6954C60.598 27.0368 62.8093 26.395 64.2796 24.9128C65.1437 23.9706 65.951 22.9768 66.8654 22.0822C67.7626 21.2074 68.595 20.2308 69.6868 19.5877Z" fill="#F99D04"/>
</svg>
