<svg width="17" height="17" viewBox="0 0 17 17" fill="none" xmlns="http://www.w3.org/2000/svg">
<path fill-rule="evenodd" clip-rule="evenodd" d="M7.48289 3.54607C7.97119 4.08735 7.81637 4.70056 7.38462 5.2824C7.28225 5.42034 7.16426 5.55627 7.02176 5.70604C6.95336 5.77793 6.90002 5.83199 6.78846 5.94367C6.53509 6.19728 6.3221 6.41039 6.14948 6.583C6.06577 6.6667 6.63729 7.80876 7.74645 8.91901C8.85501 10.0287 9.99701 10.6006 10.0811 10.5164L10.7196 9.87753C11.0713 9.52555 11.2575 9.35573 11.5134 9.18785C12.0454 8.83885 12.6256 8.74401 13.115 9.18159C14.7128 10.3245 15.617 11.0259 16.06 11.4862C16.924 12.3839 16.8107 13.7658 16.0649 14.5541C15.8062 14.8275 15.4783 15.1556 15.091 15.529C12.748 17.8733 7.80328 16.4466 4.01368 12.6533C0.22323 8.85915 -1.20263 3.91395 1.13541 1.57465C1.55516 1.14831 1.69355 1.00999 2.10235 0.607186C2.86345 -0.142757 4.3091 -0.260183 5.18789 0.607928C5.65015 1.06456 6.3871 2.01276 7.48289 3.54607ZM11.8976 11.0559L11.259 11.6949C10.1734 12.7811 8.32459 11.8552 6.56834 10.0973C4.81087 8.33808 3.88603 6.48998 4.97199 5.40411C5.14438 5.23174 5.35717 5.01883 5.61034 4.76541C5.71249 4.66316 5.75922 4.61579 5.8153 4.55685C5.89172 4.47654 5.95451 4.406 6.00478 4.34359C5.03364 2.9908 4.37348 2.14551 4.01759 1.79395C3.83379 1.61239 3.42224 1.64582 3.27115 1.79469C2.86819 2.19174 2.73574 2.32413 2.31769 2.74872C0.814094 4.25314 1.96515 8.24524 5.1918 11.4751C8.41744 14.7039 12.4089 15.8555 13.924 14.3398C14.3053 13.972 14.616 13.6611 14.8552 13.4084C15.028 13.2257 15.0589 12.8488 14.8601 12.6422C14.529 12.2982 13.7183 11.6661 12.3186 10.661C12.2166 10.7431 12.0912 10.8622 11.8976 11.0559Z" fill="#5D748A"/>
</svg>
