<svg width="71" height="96" viewBox="0 0 71 96" fill="none" xmlns="http://www.w3.org/2000/svg">
<path d="M56.9278 0.777832L46.6643 26.003H25.346L34.8217 0.777832H56.9278Z" fill="#892020"/>
<path d="M47.6406 21.6294H24.5583C23.8302 21.6294 23.1319 21.9192 22.6167 22.4352C22.1015 22.9512 21.8116 23.6512 21.8106 24.3814V39.1241H50.3883V24.3814C50.3873 23.6512 50.0974 22.9512 49.5822 22.4352C49.067 21.9192 48.3687 21.6294 47.6406 21.6294ZM48.3568 27.0313H23.3183V25.8972C23.3183 25.3087 23.5514 24.7443 23.9663 24.3282C24.3812 23.912 24.944 23.6783 25.5308 23.6783H46.1443C46.7311 23.6783 47.2938 23.912 47.7087 24.3282C48.1237 24.7443 48.3568 25.3087 48.3568 25.8972V27.0313Z" fill="#6B7384"/>
<path d="M15.4218 0.777832L25.346 26.003H46.6643L36.9625 0.777832H15.4218Z" fill="#FA352C"/>
<path d="M29.2733 26.003L19.1455 0.777832H17.5173L27.6488 26.003H29.2733Z" fill="#FF740D"/>
<path d="M34.245 26.003L24.1135 0.777832H22.489L32.6205 26.003H34.245Z" fill="#FF740D"/>
<path d="M39.0317 26.003L28.904 0.777832H27.2757L37.4072 26.003H39.0317Z" fill="#FF740D"/>
<path d="M44.1805 26.003L34.049 0.777832H32.4245L42.556 26.003H44.1805Z" fill="#FF740D"/>
<path d="M66.2158 65.194C68.4401 48.1805 56.4913 32.5799 39.5275 30.3491C22.5636 28.1183 7.00858 40.102 4.78428 57.1156C2.55999 74.1291 14.5088 89.7297 31.4726 91.9605C48.4364 94.1913 63.9915 82.2076 66.2158 65.194Z" fill="#798093"/>
<path d="M35.4962 30.0782C35.1897 30.0782 34.8844 30.0782 34.5803 30.0782C42.6261 30.3301 50.2583 33.7126 55.8608 39.5096C61.4634 45.3067 64.5963 53.063 64.5963 61.1363C64.5963 69.2096 61.4634 76.9659 55.8608 82.7629C50.2583 88.56 42.6261 91.9425 34.5803 92.1943H35.4962C43.7123 92.1943 51.5918 88.921 57.4015 83.0943C63.2111 77.2677 66.4749 69.3651 66.4749 61.1249C66.4749 52.8848 63.2111 44.9822 57.4015 39.1556C51.5918 33.3289 43.7123 30.0555 35.4962 30.0555V30.0782Z" fill="#6B7384"/>
<path d="M60.5504 64.4492C62.3644 50.5738 52.6196 37.8508 38.7847 36.0314C24.9499 34.2121 12.2639 43.9854 10.4499 57.8608C8.6359 71.7362 18.3807 84.4592 32.2156 86.2786C46.0504 88.0979 58.7363 78.3246 60.5504 64.4492Z" fill="#9EA8BA"/>
<path d="M34.7049 65.574H42.4354V69.4072H28.5612V65.4569C30.9885 63.3664 37.0267 58.3123 37.0267 55.1483C37.0267 53.5455 35.9789 52.4492 34.2413 52.4492C32.5037 52.4492 30.7435 53.1448 29.2019 53.9348L29.0662 49.7086C39.5407 45.5504 45.3188 52.1922 40.3737 59.5106C39.1801 61.2848 37.2905 63.3059 34.7049 65.574Z" fill="#CAD5E5"/>
<path d="M32.4094 78.7634C33.0337 79.3044 33.4717 80.0294 33.6608 80.8349C32.8262 80.8308 32.0135 80.5666 31.3352 80.0789C30.7109 79.5378 30.273 78.8128 30.0839 78.0073C30.9185 78.0115 31.7311 78.2757 32.4094 78.7634Z" fill="#BAC6D8"/>
<path d="M31.2143 80.7854C32.0156 80.5513 32.8691 80.5684 33.6605 80.8346C33.2093 81.537 32.5504 82.0803 31.7759 82.3882C30.9749 82.6245 30.1207 82.6074 29.3297 82.3391C29.7808 81.6366 30.4398 81.0934 31.2143 80.7854Z" fill="#BAC6D8"/>
<path d="M28.5534 77.712C29.097 78.3346 29.4296 79.1142 29.5032 79.9386C28.6792 79.8222 27.9114 79.4524 27.3058 78.8801C26.7624 78.2588 26.4298 77.4805 26.356 76.6573C27.1791 76.774 27.9464 77.1423 28.5534 77.712Z" fill="#BAC6D8"/>
<path d="M27.0873 79.5572C27.9123 79.4307 28.7561 79.5627 29.5034 79.9352C28.9625 80.5669 28.2395 81.0147 27.4341 81.2167C26.6092 81.3425 25.7656 81.2105 25.0181 80.8387C25.5586 80.2066 26.2818 79.7588 27.0873 79.5572Z" fill="#BAC6D8"/>
<path d="M25.5195 76.208C25.9553 76.908 26.1585 77.7286 26.1 78.5517C25.3128 78.3063 24.6204 77.8231 24.1174 77.1682C23.6813 76.4669 23.4781 75.645 23.5369 74.8207C24.324 75.0683 25.0161 75.5526 25.5195 76.208Z" fill="#BAC6D8"/>
<path d="M23.7781 77.7992C24.6113 77.8046 25.4224 78.0687 26.0999 78.5552C25.4623 79.0983 24.6718 79.4286 23.8384 79.5003C23.0052 79.4949 22.1941 79.2308 21.5166 78.7442C22.1542 78.2012 22.9447 77.8709 23.7781 77.7992Z" fill="#BAC6D8"/>
<path d="M22.6847 73.9173C22.9387 74.701 22.9387 75.5453 22.6847 76.329C21.967 75.9028 21.4023 75.2597 21.0715 74.4918C20.8175 73.7081 20.8175 72.8638 21.0715 72.0801C21.7891 72.5063 22.3538 73.1494 22.6847 73.9173Z" fill="#BAC6D8"/>
<path d="M20.6044 75.0436C21.4104 75.2462 22.1336 75.6954 22.6736 76.3289C21.926 76.7002 21.0826 76.8322 20.2576 76.7069C19.4511 76.5032 18.7278 76.0527 18.1884 75.4178C18.9359 75.0461 19.7798 74.9154 20.6044 75.0436Z" fill="#BAC6D8"/>
<path d="M20.5403 71.2596C20.5988 72.0832 20.3941 72.9041 19.9561 73.6033C19.3337 73.0506 18.9353 72.2878 18.8367 71.46C18.738 70.6321 18.9459 69.7967 19.4209 69.1124C20.0095 69.6926 20.4011 70.4438 20.5403 71.2596Z" fill="#BAC6D8"/>
<path d="M18.2489 71.8718C18.99 72.2533 19.5926 72.859 19.9714 73.6031C19.1577 73.7904 18.3062 73.7218 17.5327 73.4066C16.7956 73.0248 16.1978 72.4187 15.8253 71.6752C16.6342 71.4901 17.4802 71.5587 18.2489 71.8718Z" fill="#BAC6D8"/>
<path d="M18.712 67.9139C18.6002 68.7334 18.2335 69.4967 17.6642 70.0951C17.1668 69.4284 16.9304 68.6019 16.9999 67.7722C17.0693 66.9424 17.4398 66.1671 18.0411 65.5929C18.5043 66.2757 18.7392 67.0885 18.712 67.9139Z" fill="#BAC6D8"/>
<path d="M16.3454 68.0651C16.9878 68.5851 17.4496 69.2957 17.6646 70.0951C16.8316 70.1214 16.0111 69.8876 15.3164 69.426C14.6735 68.9057 14.2106 68.1954 13.9934 67.396C14.8273 67.3716 15.6485 67.6052 16.3454 68.0651Z" fill="#BAC6D8"/>
<path d="M17.7701 64.7275C17.5277 65.5201 17.044 66.2167 16.3868 66.7196C16.039 65.9704 15.9387 65.1295 16.1003 64.3192C16.342 63.5272 16.8259 62.8316 17.4836 62.3308C17.8291 63.0793 17.9294 63.9183 17.7701 64.7275Z" fill="#BAC6D8"/>
<path d="M15.4069 64.5039C15.9586 65.12 16.3017 65.8954 16.3868 66.7191C15.5604 66.6124 14.7867 66.2534 14.1706 65.6909C13.6181 65.0749 13.2738 64.2996 13.1868 63.4757C14.0147 63.5812 14.79 63.9403 15.4069 64.5039Z" fill="#BAC6D8"/>
<path d="M17.6684 61.1742C17.236 61.8876 16.5914 62.4468 15.8253 62.7733C15.672 61.963 15.7803 61.1248 16.1343 60.3804C16.5638 59.6689 17.2042 59.1098 17.9662 58.7814C18.1232 59.5905 18.0189 60.4287 17.6684 61.1742Z" fill="#BAC6D8"/>
<path d="M15.4481 60.3953C15.8203 61.1282 15.9522 61.9604 15.825 62.773C15.0562 62.4763 14.3978 61.9481 13.9404 61.2609C13.5579 60.5313 13.4154 59.699 13.5333 58.8832C14.3133 59.1745 14.9828 59.7032 15.4481 60.3953Z" fill="#BAC6D8"/>
<path d="M18.2977 57.59C17.7125 58.1836 16.9577 58.58 16.1379 58.7241C16.18 57.8943 16.485 57.0997 17.0086 56.456C17.5962 55.8637 18.3518 55.4676 19.1721 55.3219C19.1288 56.152 18.8224 56.9466 18.2977 57.59Z" fill="#BAC6D8"/>
<path d="M16.3075 56.3088C16.5073 57.1091 16.4479 57.9525 16.1379 58.7167C15.4555 58.2476 14.9383 57.5742 14.6604 56.7926C14.4609 55.9922 14.5203 55.149 14.83 54.3846C15.5114 54.8549 16.0283 55.5279 16.3075 56.3088Z" fill="#BAC6D8"/>
<path d="M19.5943 54.6414C18.8871 55.0853 18.0604 55.2992 17.2273 55.2538C17.4636 54.4591 17.9436 53.7594 18.5993 53.2541C19.3051 52.8103 20.1306 52.5964 20.9625 52.6417C20.7268 53.4357 20.2482 54.1352 19.5943 54.6414Z" fill="#BAC6D8"/>
<path d="M17.9507 52.9443C17.9593 53.7705 17.7059 54.578 17.2271 55.2503C16.6404 54.6623 16.2889 53.8792 16.2389 53.0489C16.1889 52.2186 16.4439 51.3988 16.9557 50.7443C17.5105 51.354 17.8588 52.1241 17.9507 52.9443Z" fill="#BAC6D8"/>
<path d="M21.2111 51.973C20.4431 52.3011 19.593 52.3843 18.7762 52.2112C19.1385 51.4629 19.7249 50.847 20.4535 50.4496C21.2203 50.1216 22.0696 50.0397 22.8846 50.2152C22.5238 50.9622 21.9385 51.577 21.2111 51.973Z" fill="#BAC6D8"/>
<path d="M19.8618 50.0453C19.7373 50.8642 19.3573 51.6225 18.7763 52.2113C18.2879 51.5374 18.063 50.7072 18.1443 49.878C18.2256 49.0489 18.6074 48.2785 19.2173 47.7129C19.6723 48.4026 19.8979 49.2191 19.8618 50.0453Z" fill="#BAC6D8"/>
<path d="M39.2654 78.5932C38.641 79.1351 38.2042 79.8618 38.0178 80.6685C38.852 80.6619 39.664 80.398 40.3434 79.9125C40.9678 79.3706 41.4046 78.6439 41.591 77.8372C40.7567 77.8433 39.9446 78.1073 39.2654 78.5932Z" fill="#BAC6D8"/>
<path d="M40.4602 80.619C39.6605 80.3825 38.8074 80.3996 38.0178 80.6681C38.468 81.3714 39.1273 81.915 39.9024 82.2218C40.7037 82.4562 41.5573 82.439 42.3486 82.1726C41.8976 81.4686 41.2369 80.9249 40.4602 80.619Z" fill="#BAC6D8"/>
<path d="M42.6351 77.712C42.0915 78.3346 41.7589 79.1142 41.6853 79.9386C42.5091 79.8215 43.2766 79.4518 43.8827 78.8801C44.4261 78.2588 44.7587 77.4805 44.8325 76.6573C44.0092 76.7733 43.2417 77.1417 42.6351 77.712Z" fill="#BAC6D8"/>
<path d="M44.0937 79.557C43.27 79.4308 42.4275 79.5628 41.6815 79.9351C42.2223 80.5667 42.9453 81.0145 43.7507 81.2165C44.5757 81.3423 45.4192 81.2104 46.1668 80.8385C45.6252 80.2058 44.9007 79.7579 44.0937 79.557Z" fill="#BAC6D8"/>
<path d="M45.6616 76.0826C45.2254 76.7824 45.0221 77.6032 45.0812 78.4264C45.8759 78.1838 46.5755 77.6989 47.0826 77.039C47.5206 76.34 47.724 75.5187 47.6631 74.6953C46.8688 74.9387 46.1694 75.4235 45.6616 76.0826Z" fill="#BAC6D8"/>
<path d="M47.4067 77.6748C46.5724 77.6807 45.7602 77.9447 45.0811 78.4308C45.6952 79.006 46.4945 79.3413 47.3341 79.376C48.1736 79.4106 48.9977 79.1424 49.6569 78.6199C49.0221 78.0794 48.236 77.7493 47.4067 77.6748Z" fill="#BAC6D8"/>
<path d="M48.4019 73.8489C48.1455 74.6336 48.1455 75.4798 48.4019 76.2644C49.1135 75.8393 49.6739 75.2006 50.0038 74.4386C50.2588 73.6538 50.2588 72.8079 50.0038 72.0231C49.2933 72.4496 48.7333 73.0879 48.4019 73.8489Z" fill="#BAC6D8"/>
<path d="M50.5012 74.9751C49.6953 75.1801 48.9724 75.6305 48.4319 76.2642C49.1793 76.6367 50.023 76.7687 50.848 76.6422C51.6545 76.4407 52.3781 75.9913 52.9172 75.3569C52.1701 74.9838 51.3265 74.8505 50.5012 74.9751Z" fill="#BAC6D8"/>
<path d="M50.6595 71.0176C50.6063 71.8411 50.8148 72.6604 51.2551 73.3576C51.8764 72.805 52.2741 72.043 52.3728 71.216C52.4714 70.389 52.2642 69.5545 51.7903 68.8705C51.1971 69.4488 50.8013 70.2003 50.6595 71.0176Z" fill="#BAC6D8"/>
<path d="M52.9512 71.6303C52.2198 72.0145 51.6267 72.6186 51.2551 73.3579C52.0683 73.5476 52.9202 73.4803 53.6937 73.1651C54.4277 72.7802 55.0233 72.1749 55.3974 71.4338C54.5813 71.2446 53.7268 71.3133 52.9512 71.6303Z" fill="#BAC6D8"/>
<path d="M52.2804 67.8534C52.3922 68.6729 52.7589 69.4362 53.3283 70.0346C53.8256 69.3679 54.062 68.5414 53.9925 67.7116C53.9231 66.8819 53.5526 66.1065 52.9513 65.5323C52.4898 66.216 52.255 67.0282 52.2804 67.8534Z" fill="#BAC6D8"/>
<path d="M54.6474 68.0046C54.0046 68.5248 53.5416 69.2352 53.3245 70.0345C54.1583 70.0589 54.9795 69.8253 55.6764 69.3654C56.3193 68.8452 56.7822 68.1348 56.9994 67.3355C56.1655 67.3111 55.3443 67.5447 54.6474 68.0046Z" fill="#BAC6D8"/>
<path d="M53.2263 64.6628C53.467 65.4562 53.9511 66.1533 54.6096 66.6549C54.9571 65.907 55.0574 65.0674 54.896 64.2583C54.6553 63.4648 54.1713 62.7677 53.5128 62.2661C53.1653 63.014 53.0649 63.8537 53.2263 64.6628Z" fill="#BAC6D8"/>
<path d="M55.5895 64.4402C55.0376 65.0547 54.6944 65.829 54.6095 66.6516C55.4347 66.5446 56.2071 66.1856 56.822 65.6234C57.3732 65.0085 57.7163 64.2344 57.802 63.412C56.9762 63.5171 56.2032 63.8763 55.5895 64.4402Z" fill="#BAC6D8"/>
<path d="M53.3132 61.2268C53.744 61.9372 54.3841 62.496 55.145 62.8259C55.2961 62.0139 55.1866 61.1748 54.8322 60.4292C54.4014 59.7188 53.7614 59.1601 53.0004 58.8302C52.8493 59.6422 52.9589 60.4812 53.3132 61.2268Z" fill="#BAC6D8"/>
<path d="M55.5519 60.4441C55.1671 61.1743 55.0245 62.0085 55.1448 62.8256C55.9134 62.5285 56.5717 62.0003 57.0294 61.3135C57.414 60.5832 57.5566 59.7491 57.4365 58.932C56.667 59.2276 56.0084 59.7561 55.5519 60.4441Z" fill="#BAC6D8"/>
<path d="M52.65 57.6358C53.2364 58.2297 53.9925 58.626 54.8135 58.7698C54.7691 57.94 54.4628 57.1457 53.939 56.5017C53.3518 55.9088 52.5961 55.5127 51.7755 55.3677C51.8199 56.1976 52.1261 56.9918 52.65 57.6358Z" fill="#BAC6D8"/>
<path d="M54.6474 56.3462C54.4478 57.1469 54.5085 57.9906 54.8208 58.7542C55.5022 58.284 56.019 57.6109 56.2983 56.8301C56.4953 56.0292 56.4346 55.1863 56.1249 54.4221C55.4446 54.8935 54.928 55.5662 54.6474 56.3462Z" fill="#BAC6D8"/>
<path d="M51.3907 54.7401C52.098 55.184 52.9247 55.3978 53.7578 55.3525C53.5215 54.5578 53.0414 53.858 52.3858 53.3527C51.6799 52.9089 50.8544 52.695 50.0225 52.7403C50.2582 53.5343 50.7369 54.2339 51.3907 54.7401Z" fill="#BAC6D8"/>
<path d="M53.0343 53.0467C53.0257 53.8729 53.2791 54.6804 53.7579 55.3527C54.3456 54.7645 54.6978 53.9806 54.7478 53.1495C54.7978 52.3183 54.5422 51.4977 54.0293 50.8429C53.4738 51.4536 53.1255 52.2251 53.0343 53.0467Z" fill="#BAC6D8"/>
<path d="M49.6797 52.0901C50.4477 52.4182 51.2978 52.5014 52.1146 52.3282C51.7529 51.5808 51.168 50.9651 50.4411 50.5667C49.6724 50.2408 48.8227 50.159 48.0062 50.3323C48.366 51.08 48.9516 51.6951 49.6797 52.0901Z" fill="#BAC6D8"/>
<path d="M51.0289 50.1623C51.1551 50.9807 51.5349 51.7385 52.1144 52.3284C52.601 51.6527 52.8233 50.8214 52.7393 49.9922C52.6552 49.163 52.2705 48.3936 51.6583 47.83C51.2086 48.5214 50.9883 49.3378 51.0289 50.1623Z" fill="#BAC6D8"/>
<path d="M48.7677 48.2833C48.712 48.3399 48.6528 48.393 48.5905 48.4421L48.5302 48.4799C50.5384 50.159 52.1569 52.2575 53.2727 54.6289C54.3885 57.0003 54.9748 59.5874 54.9905 62.2095C54.9905 72.4161 46.2348 80.6985 35.4739 80.6985C24.7129 80.6985 15.9534 72.4047 15.9534 62.2095C15.9658 59.7043 16.501 57.2294 17.5248 54.9442C18.5485 52.659 20.038 50.614 21.8974 48.9411C21.7882 48.9094 21.6822 48.8677 21.5808 48.8163C19.7204 50.515 18.232 52.5824 17.2095 54.8878C16.187 57.1932 15.6527 59.6864 15.6406 62.2095C15.6406 72.5673 24.5358 80.9971 35.4739 80.9971C46.4119 80.9971 55.3034 72.5673 55.3034 62.2095C55.2883 59.5514 54.6958 56.9285 53.5671 54.5235C52.4383 52.1184 50.8005 49.9889 48.7677 48.2833Z" fill="#BAC6D8"/>
<path d="M23.8382 49.6138C23.0144 49.7492 22.169 49.625 21.4184 49.2585C21.9536 48.621 22.6725 48.1654 23.4764 47.9543C24.3002 47.8212 25.1449 47.9453 25.8962 48.3096C25.3621 48.9485 24.6427 49.4044 23.8382 49.6138Z" fill="#BAC6D8"/>
<path d="M22.9867 47.4218C22.6649 48.1859 22.1109 48.8288 21.4037 49.2589C21.1366 48.4792 21.1247 47.6342 21.3698 46.8472C21.7012 46.0775 22.2673 45.433 22.9867 45.0062C23.2429 45.7909 23.2429 46.6371 22.9867 47.4218Z" fill="#BAC6D8"/>
<path d="M47.1881 49.6138C48.012 49.7492 48.8574 49.625 49.6079 49.2585C49.0728 48.621 48.3538 48.1654 47.55 47.9543C46.7261 47.8212 45.8814 47.9453 45.1302 48.3096C45.6642 48.9485 46.3836 49.4044 47.1881 49.6138Z" fill="#BAC6D8"/>
<path d="M48.0213 47.4218C48.3455 48.1857 48.9005 48.8282 49.6081 49.2589C49.8753 48.4792 49.8872 47.6342 49.6421 46.8472C49.3196 46.0824 48.7659 45.4385 48.059 45.0062C47.7919 45.7871 47.7787 46.6329 48.0213 47.4218Z" fill="#BAC6D8"/>
</svg>
