<svg width="30" height="30" viewBox="0 0 30 30" fill="none" xmlns="http://www.w3.org/2000/svg">
<path d="M26.0405 20.2082C24.8578 19.2842 23.1412 19.2843 21.9586 20.2082C21.4119 20.6353 20.5874 20.6352 20.0408 20.2082C19.5101 19.7935 18.8718 19.5656 18.2225 19.5231V10.5053L29.9985 10.5154L30 8.75767L26.6596 8.7548V5.39233C26.6596 2.58161 24.3729 0.294922 21.5621 0.294922C18.7514 0.294922 16.4647 2.58161 16.4647 5.39233V8.73201H13.5352V5.39233C13.5352 2.58161 11.2485 0.294922 8.43779 0.294922C5.62707 0.294922 3.34038 2.58161 3.34038 5.39233V8.73201C3.34038 8.73787 3.49928 8.735 0.00146477 8.73201L0 10.4897L3.34044 10.4926V20.4918C2.89369 20.5866 2.40609 20.4928 2.04178 20.2082C1.46776 19.7597 0.742932 19.5127 0.000761682 19.5127V21.2705C0.352659 21.2705 0.69313 21.3851 0.959602 21.5933C2.14232 22.5172 3.85897 22.5172 5.04157 21.5933C5.58828 21.1662 6.41271 21.1662 6.95931 21.5933C8.14202 22.5172 9.85868 22.5172 11.0413 21.5932C11.5879 21.1662 12.4124 21.1662 12.959 21.5932C14.1416 22.5172 15.8583 22.5172 17.0409 21.5932C17.5876 21.1661 18.4121 21.1662 18.9587 21.5932C20.1414 22.5172 21.858 22.5172 23.0406 21.5932C23.5873 21.1662 24.4117 21.1661 24.9584 21.5932C26.141 22.5172 27.8577 22.5171 29.0404 21.5932C29.3068 21.385 29.6473 21.2704 29.9992 21.2704V19.5127C29.2569 19.5127 28.5321 19.7596 27.9582 20.2081C27.4116 20.6353 26.5871 20.6352 26.0405 20.2082ZM5.09817 14.2396H16.4648V16.2316H5.09817V14.2396ZM18.2225 5.39233C18.2225 3.55082 19.7207 2.05265 21.5622 2.05265C23.4037 2.05265 24.9019 3.55082 24.9019 5.39233V8.73201H18.2225V5.39233ZM5.09817 5.39233C5.09817 3.55082 6.59634 2.05265 8.43785 2.05265C10.2794 2.05265 11.7775 3.55082 11.7775 5.39233V8.73201H5.09817V5.39233ZM16.4648 10.5039V12.4819H5.09817V10.4941L16.4648 10.5039ZM14.0411 20.2082C12.8584 19.2842 11.1418 19.2843 9.95916 20.2082C9.41245 20.6353 8.58802 20.6352 8.04142 20.2082C7.20205 19.5523 6.09375 19.3626 5.09817 19.6377V17.9894H16.4648V19.885C16.2883 19.9761 16.1186 20.0834 15.9589 20.2082C15.4122 20.6353 14.5878 20.6352 14.0411 20.2082Z" fill="#558EF7"/>
<path d="M26.0405 23.9578C24.8578 23.0339 23.1411 23.0339 21.9585 23.9578C21.4118 24.3849 20.5874 24.3849 20.0408 23.9578C18.8582 23.0338 17.1414 23.0339 15.9588 23.9578C15.4122 24.3849 14.5878 24.3849 14.0411 23.9577C12.8584 23.0338 11.1418 23.0339 9.95918 23.9577C9.41247 24.3849 8.58803 24.3848 8.04144 23.9577C6.85884 23.0338 5.14207 23.0338 3.95947 23.9577C3.41282 24.3848 2.58833 24.3848 2.04179 23.9577C1.46778 23.5093 0.742949 23.2623 0.000778198 23.2623V25.0201C0.352675 25.0201 0.693147 25.1347 0.959618 25.3429C2.14233 26.2668 3.85899 26.2667 5.04159 25.3429C5.5883 24.9158 6.41273 24.9158 6.95933 25.3429C8.14204 26.2668 9.8587 26.2668 11.0413 25.3428C11.5879 24.9158 12.4124 24.9158 12.959 25.3428C14.1416 26.2668 15.8583 26.2667 17.0409 25.3428C17.5877 24.9157 18.4121 24.9158 18.9587 25.3428C20.1414 26.2667 21.8581 26.2667 23.0407 25.3428C23.5873 24.9158 24.4117 24.9157 24.9584 25.3428C26.141 26.2667 27.8577 26.2667 29.0404 25.3428C29.3068 25.1346 29.6473 25.02 29.9992 25.02V23.2623C29.257 23.2623 28.5321 23.5092 27.9582 23.9577C27.4116 24.3849 26.5871 24.3849 26.0405 23.9578Z" fill="#558EF7"/>
<path d="M26.0405 27.6269C24.8578 26.7029 23.1411 26.703 21.9585 27.6269C21.4118 28.054 20.5874 28.0539 20.0408 27.6269C18.8582 26.7029 17.1414 26.7029 15.9588 27.6269C15.4122 28.054 14.5878 28.0539 14.0411 27.6268C12.8584 26.7029 11.1418 26.7029 9.95918 27.6268C9.41247 28.0539 8.58803 28.0539 8.04144 27.6268C6.85884 26.7028 5.14207 26.7029 3.95947 27.6268C3.41288 28.0539 2.58839 28.0539 2.04179 27.6268C1.46778 27.1784 0.742949 26.9314 0.000778198 26.9314V28.6891C0.352675 28.6891 0.693147 28.8038 0.959618 29.012C2.14233 29.9359 3.85899 29.9358 5.04159 29.012C5.5883 28.5848 6.41273 28.5849 6.95933 29.012C8.14204 29.9359 9.8587 29.9358 11.0413 29.0119C11.5879 28.5849 12.4124 28.5848 12.959 29.0119C14.1416 29.9359 15.8583 29.9358 17.0409 29.0119C17.5877 28.5848 18.4121 28.5848 18.9587 29.0119C20.1414 29.9358 21.8581 29.9358 23.0407 29.0118C23.5873 28.5848 24.4117 28.5848 24.9584 29.0118C26.141 29.9358 27.8577 29.9358 29.0404 29.0118C29.3068 28.8037 29.6473 28.6891 29.9992 28.6891V26.9313C29.257 26.9313 28.5321 27.1783 27.9582 27.6267C27.4116 28.054 26.5871 28.054 26.0405 27.6269Z" fill="#558EF7"/>
</svg>
