<svg width="24" height="20" viewBox="0 0 24 20" fill="none" xmlns="http://www.w3.org/2000/svg">
<path fill-rule="evenodd" clip-rule="evenodd" d="M18.384 19.7791C18.706 20.0071 19.121 20.0641 19.491 19.9241C19.861 19.7831 20.133 19.4671 20.215 19.0841C21.084 15.0001 23.192 4.66315 23.983 0.948148C24.043 0.668148 23.943 0.377148 23.723 0.190148C23.503 0.00314829 23.198 -0.0508518 22.926 0.0501482C18.733 1.60215 5.82003 6.44715 0.542032 8.40015C0.207032 8.52415 -0.0109684 8.84615 3.16428e-05 9.19915C0.0120316 9.55315 0.250032 9.86015 0.593032 9.96315C2.96003 10.6711 6.06703 11.6561 6.06703 11.6561C6.06703 11.6561 7.51903 16.0411 8.27603 18.2711C8.37103 18.5511 8.59003 18.7711 8.87903 18.8471C9.16703 18.9221 9.47503 18.8431 9.69003 18.6401C10.906 17.4921 12.786 15.7171 12.786 15.7171C12.786 15.7171 16.358 18.3361 18.384 19.7791V19.7791ZM7.37403 11.1021L9.05303 16.6401L9.42603 13.1331C9.42603 13.1331 15.913 7.28215 19.611 3.94715C19.719 3.84915 19.734 3.68515 19.644 3.57015C19.555 3.45515 19.391 3.42815 19.268 3.50615C14.982 6.24315 7.37403 11.1021 7.37403 11.1021Z" fill="url(#paint0_linear)"/>
<defs>
<linearGradient id="paint0_linear" x1="-0.244998" y1="-0.051617" x2="2.6423" y2="14.7482" gradientUnits="userSpaceOnUse">
<stop stop-color="#5D748A"/>
<stop offset="1" stop-color="#5D748A"/>
</linearGradient>
</defs>
</svg>
