<svg width="36" height="36" viewBox="0 0 36 36" fill="none" xmlns="http://www.w3.org/2000/svg">
<g clip-path="url(#clip0)">
<path d="M33.0158 2.98541C28.2683 -1.76208 20.1327 -0.538507 15.1172 4.47694C7.64975 11.9443 13.4783 16.7126 6.8652 24.5645L11.4367 29.136C19.2888 22.5228 24.0567 28.3516 31.5243 20.8841C36.5738 15.8344 37.7345 7.70407 33.0158 2.98541ZM31.5243 4.47694C32.3096 5.2624 32.8863 6.18757 33.2829 7.19297L29.2869 11.189L24.8122 6.71428L28.8082 2.71829C29.8136 3.11492 30.7388 3.69163 31.5243 4.47694ZM27.7953 12.6805L23.3208 17.1552L18.8461 12.6805L23.3208 8.20596L27.7953 12.6805ZM26.4082 2.13533L23.3207 5.22282L21.0784 2.98056C22.8483 2.25739 24.6856 1.96475 26.4082 2.13533ZM16.6087 5.96862C17.385 5.19216 18.2282 4.53812 19.1062 3.99144L21.8291 6.71428L17.3546 11.189L14.6316 8.46598C15.1782 7.58799 15.8324 6.74494 16.6087 5.96862ZM13.6206 10.4382L15.8629 12.6805L12.7754 15.7681C12.6049 14.0453 12.8974 12.208 13.6206 10.4382ZM13.5002 25.2334L10.7679 22.501C11.2076 21.6623 11.5509 20.7954 11.848 19.9196C12.3105 20.8104 12.8926 21.6427 13.6257 22.3757C14.3586 23.1087 15.191 23.6908 16.0818 24.1534C15.2059 24.4503 14.3391 24.7937 13.5002 25.2334ZM15.1172 20.8841C14.3319 20.0987 13.755 19.1734 13.3584 18.1682L17.3546 14.172L21.8291 18.6467L17.8331 22.6428C16.8277 22.2462 15.9025 21.6694 15.1172 20.8841ZM20.2331 23.2258L23.3207 20.1383L25.563 22.3805C23.7932 23.1037 21.9559 23.3962 20.2331 23.2258ZM30.0327 19.3925C29.2563 20.1688 28.4133 20.823 27.5352 21.3697L24.8122 18.6467L29.2869 14.172L32.0098 16.895C31.4632 17.773 30.809 18.6162 30.0327 19.3925ZM30.7785 12.6805L33.8659 9.59301C34.0365 11.3157 33.7439 13.153 33.0207 14.9228L30.7785 12.6805Z" fill="#5D748A"/>
<path d="M5.42208 26.1045L0.925389 30.6001C-0.308382 31.8339 -0.308382 33.841 0.925389 35.0748C2.15916 36.3084 4.1663 36.3084 5.40007 35.0748L9.89675 30.5792L5.42208 26.1045Z" fill="#5D748A"/>
</g>
<defs>
<clipPath id="clip0">
<rect width="36" height="36" fill="white"/>
</clipPath>
</defs>
</svg>
