<svg width="74" height="97" viewBox="0 0 74 97" fill="none" xmlns="http://www.w3.org/2000/svg">
<path d="M58.4376 0L47.9083 25.4988H26.0377L35.7588 0H58.4376Z" fill="#8E2323"/>
<path d="M48.9097 21.0776H25.2294C24.8596 21.0771 24.4933 21.1487 24.1515 21.2884C23.8098 21.428 23.4992 21.6329 23.2377 21.8913C22.9762 22.1497 22.7689 22.4566 22.6276 22.7943C22.4863 23.132 22.4139 23.494 22.4144 23.8595V38.7621H51.7209V23.8595C51.7209 23.1223 51.4248 22.4154 50.8977 21.8938C50.3707 21.3722 49.6556 21.0787 48.9097 21.0776ZM49.6444 26.5381H23.9534V25.3918C23.9534 25.0969 24.0122 24.8049 24.1265 24.5325C24.2408 24.2601 24.4084 24.0127 24.6195 23.8043C24.8307 23.596 25.0814 23.4309 25.3572 23.3184C25.633 23.2059 25.9286 23.1482 26.227 23.1487H47.3746C47.9766 23.1487 48.5539 23.385 48.9796 23.8057C49.4053 24.2263 49.6444 24.7969 49.6444 25.3918V26.5381Z" fill="#C95506"/>
<path d="M15.8567 0L26.038 25.4988H47.9086L37.9555 0H15.8567Z" fill="#FA352C"/>
<path d="M30.8827 25.4988L19.9242 0H18.6636L29.6221 25.4988H30.8827Z" fill="#7F0B0B"/>
<path d="M34.9002 25.4988L23.9417 0H22.6812L33.6397 25.4988H34.9002Z" fill="#7F0B0B"/>
<path d="M39.4824 25.4988L28.5239 0H27.2633L38.2218 25.4988H39.4824Z" fill="#7F0B0B"/>
<path d="M43.8907 25.4988L32.9322 0H31.6716L42.6301 25.4988H43.8907Z" fill="#7F0B0B"/>
<path d="M67.8768 66.0032C70.7071 48.8849 58.9541 32.7692 41.6256 30.0078C24.2972 27.2463 7.95521 38.8849 5.12484 56.0031C2.29447 73.1214 14.0475 89.2371 31.376 91.9986C48.7044 94.76 65.0464 83.1215 67.8768 66.0032Z" fill="#FFB839"/>
<path d="M58.4262 38.334C64.1857 44.2627 67.3639 52.1862 67.2791 60.4043C67.1942 68.6223 63.8529 76.4801 57.9722 82.2914C52.0915 88.1027 44.1399 91.4046 35.8238 91.4885C27.5077 91.5724 19.4896 88.4315 13.4901 82.74C16.4182 85.7542 19.9255 88.1607 23.8066 89.8186C27.6877 91.4765 31.8645 92.3524 36.0925 92.395C40.3204 92.4376 44.5144 91.6462 48.429 90.0669C52.3435 88.4877 55.8998 86.1524 58.8895 83.1979C61.8793 80.2434 64.2424 76.7291 65.8405 72.8607C67.4386 68.9924 68.2396 64.8478 68.1964 60.6698C68.1532 56.4917 67.2669 52.3641 65.5892 48.5288C63.9116 44.6935 61.4764 41.2276 58.4262 38.334Z" fill="#EA7603"/>
<path d="M62.0491 65.1329C64.343 51.1698 54.7481 38.0134 40.6182 35.7471C26.4883 33.4809 13.1742 42.9631 10.8803 56.9262C8.58639 70.8893 18.1813 84.0458 32.3112 86.312C46.4411 88.5782 59.7552 79.096 62.0491 65.1329Z" fill="#FF9B50"/>
<g style="mix-blend-mode:screen" opacity="0.69">
<g style="mix-blend-mode:screen" opacity="0.69">
<path d="M33.903 79.1291C34.5428 79.6776 34.9908 80.4118 35.1831 81.2269C34.3271 81.2207 33.4938 80.9539 32.7969 80.4627C32.1568 79.916 31.7086 79.1829 31.5168 78.3687C32.3726 78.373 33.206 78.6386 33.903 79.1291Z" fill="#FFB448"/>
</g>
<g style="mix-blend-mode:screen" opacity="0.69">
<path d="M32.6772 81.1772C33.4978 80.9381 34.373 80.9555 35.1832 81.2269C34.7215 81.938 34.045 82.4874 33.2496 82.7974C32.429 83.0364 31.5537 83.0191 30.7435 82.7477C31.2052 82.0366 31.8818 81.4871 32.6772 81.1772Z" fill="#FFB448"/>
</g>
<g style="mix-blend-mode:screen" opacity="0.69">
<path d="M29.9473 78.071C30.5033 78.7015 30.8443 79.4889 30.9219 80.3217C30.0753 80.2039 29.2864 79.8301 28.6634 79.2517C28.1077 78.6226 27.7666 77.8364 27.6888 77.0049C28.5347 77.1223 29.3233 77.4946 29.9473 78.071Z" fill="#FFB448"/>
</g>
<g style="mix-blend-mode:screen" opacity="0.69">
<path d="M28.443 79.9354C29.2894 79.8075 30.1552 79.9409 30.9219 80.3175C30.366 80.9567 29.6227 81.4094 28.7949 81.6129C27.9485 81.7408 27.0827 81.6074 26.3159 81.2308C26.8719 80.5916 27.6152 80.1389 28.443 79.9354Z" fill="#FFB448"/>
</g>
<g style="mix-blend-mode:screen" opacity="0.69">
<path d="M26.8343 76.5498C27.2815 77.2574 27.49 78.0869 27.4299 78.919C26.6145 78.6738 25.8967 78.1836 25.3764 77.5166C24.9287 76.8092 24.7202 75.9796 24.7808 75.1475C25.5962 75.3926 26.314 75.8828 26.8343 76.5498Z" fill="#FFB448"/>
</g>
<g style="mix-blend-mode:screen" opacity="0.69">
<path d="M25.0401 78.1587C25.8963 78.1636 26.73 78.4306 27.4263 78.9229C26.7928 79.5037 25.9695 79.8408 25.106 79.873C24.2424 79.9053 23.3958 79.6305 22.7197 79.0987C23.3759 78.5553 24.1868 78.2268 25.0401 78.1587Z" fill="#FFB448"/>
</g>
<g style="mix-blend-mode:screen" opacity="0.69">
<path d="M23.9265 74.2343C24.1882 75.0264 24.1882 75.8801 23.9265 76.6722C23.198 76.2417 22.6245 75.5962 22.2868 74.8266C22.024 74.0347 22.024 73.1806 22.2868 72.3887C23.0145 72.8202 23.5877 73.4654 23.9265 74.2343Z" fill="#FFB448"/>
</g>
<g style="mix-blend-mode:screen" opacity="0.69">
<path d="M21.789 75.373C22.6166 75.5766 23.359 76.0309 23.9122 76.6722C23.1605 77.0881 22.2827 77.2239 21.4383 77.0549C20.5939 76.886 19.8388 76.4234 19.3101 75.7513C20.0773 75.376 20.943 75.2439 21.789 75.373Z" fill="#FFB448"/>
</g>
<g style="mix-blend-mode:screen" opacity="0.69">
<path d="M21.7272 71.5478C21.7847 72.3806 21.5735 73.2101 21.1239 73.9169C20.4859 73.3577 20.0779 72.5864 19.9774 71.7496C19.8769 70.9128 20.0908 70.0686 20.5786 69.3773C21.1826 69.9637 21.5844 70.7231 21.7272 71.5478Z" fill="#FFB448"/>
</g>
<g style="mix-blend-mode:screen" opacity="0.69">
<path d="M19.3759 72.1672C20.129 72.5563 20.7402 73.1682 21.124 73.9173C20.2904 74.1069 19.4179 74.0375 18.6257 73.7186C17.8702 73.3315 17.2573 72.7192 16.8738 71.9685C17.7087 71.7792 18.5824 71.8486 19.3759 72.1672Z" fill="#FFB448"/>
</g>
<g style="mix-blend-mode:screen" opacity="0.69">
<path d="M19.8514 68.1666C19.7367 68.995 19.3605 69.7666 18.7763 70.3715C18.266 69.6976 18.0235 68.8621 18.0947 68.0234C18.166 67.1846 18.5461 66.4008 19.163 65.8204C19.6383 66.5107 19.8794 67.3323 19.8514 68.1666Z" fill="#FFB448"/>
</g>
<g style="mix-blend-mode:screen" opacity="0.69">
<path d="M17.4198 68.3193C18.0795 68.8452 18.5545 69.5633 18.7773 70.3713C17.9214 70.3982 17.0782 70.1619 16.3641 69.6949C15.7063 69.1681 15.2328 68.4503 15.0105 67.643C15.8649 67.6186 16.7061 67.8547 17.4198 68.3193Z" fill="#FFB448"/>
</g>
<g style="mix-blend-mode:screen" opacity="0.69">
<path d="M18.8806 64.9607C18.6341 65.7619 18.1373 66.4655 17.4613 66.9707C17.1066 66.2141 17.0037 65.366 17.1674 64.548C17.4175 63.7476 17.9152 63.0447 18.5905 62.5381C18.9447 63.2948 19.0463 64.1432 18.8806 64.9607Z" fill="#FFB448"/>
</g>
<g style="mix-blend-mode:screen" opacity="0.69">
<path d="M16.4562 64.7195C17.0218 65.3411 17.3738 66.1236 17.4617 66.9549C16.6151 66.8491 15.8222 66.4874 15.1916 65.9194C14.6254 65.2967 14.2734 64.5128 14.186 63.6802C15.0327 63.7883 15.8253 64.1512 16.4562 64.7195Z" fill="#FFB448"/>
</g>
<g style="mix-blend-mode:screen" opacity="0.69">
<path d="M18.7764 61.3536C18.3358 62.0729 17.6786 62.638 16.8969 62.97C16.7419 62.1505 16.8543 61.3035 17.2179 60.5512C17.6585 59.8319 18.3156 59.2668 19.0974 58.9348C19.2524 59.7543 19.14 60.6013 18.7764 61.3536Z" fill="#FFB448"/>
</g>
<g style="mix-blend-mode:screen" opacity="0.69">
<path d="M16.4795 60.5656C16.8743 61.3024 17.0206 62.1445 16.8972 62.9691C16.1077 62.6703 15.4319 62.1361 14.9635 61.4407C14.5687 60.7025 14.4223 59.8592 14.5458 59.0333C15.3352 59.3343 16.0108 59.8696 16.4795 60.5656Z" fill="#FFB448"/>
</g>
<g style="mix-blend-mode:screen" opacity="0.69">
<path d="M19.4261 57.7309C18.824 58.3307 18.0484 58.7312 17.2063 58.8773C17.2518 58.0384 17.566 57.2355 18.1035 56.5846C18.706 55.9853 19.4814 55.5848 20.3234 55.4382C20.2768 56.2769 19.9627 57.0795 19.4261 57.7309Z" fill="#FFB448"/>
</g>
<g style="mix-blend-mode:screen" opacity="0.69">
<path d="M17.3843 56.4355C17.5891 57.2448 17.5268 58.0977 17.2064 58.8696C16.5072 58.3942 15.9769 57.7139 15.6904 56.9246C15.4882 56.115 15.5505 55.263 15.8683 54.4905C16.5663 54.9669 17.0963 55.6469 17.3843 56.4355Z" fill="#FFB448"/>
</g>
<g style="mix-blend-mode:screen" opacity="0.69">
<path d="M20.7527 54.7499C20.0275 55.1964 19.1812 55.4125 18.3279 55.3689C18.5697 54.5663 19.0608 53.8592 19.7317 53.3475C20.4574 52.8988 21.3056 52.6826 22.1604 52.7285C21.918 53.5318 21.4254 54.2391 20.7527 54.7499Z" fill="#FFB448"/>
</g>
<g style="mix-blend-mode:screen" opacity="0.69">
<path d="M19.0706 53.038C19.0765 53.8726 18.8168 54.688 18.3281 55.3689C17.7241 54.7741 17.3621 53.981 17.3108 53.14C17.2594 52.2989 17.5224 51.4686 18.0496 50.8064C18.6192 51.4255 18.9765 52.2065 19.0706 53.038Z" fill="#FFB448"/>
</g>
<g style="mix-blend-mode:screen" opacity="0.69">
<path d="M22.4155 52.0524C21.6274 52.384 20.7548 52.4668 19.9172 52.2893C20.2875 51.5342 20.888 50.9128 21.6343 50.5125C22.4225 50.1808 23.2951 50.0981 24.1326 50.2756C23.7624 51.0307 23.1619 51.6521 22.4155 52.0524Z" fill="#FFB448"/>
</g>
<g style="mix-blend-mode:screen" opacity="0.69">
<path d="M21.0313 50.1038C20.9022 50.9301 20.5124 51.695 19.9175 52.2895C19.4553 51.5909 19.2292 50.7655 19.2716 49.9319C19.4099 49.1109 19.8048 48.3532 20.4009 47.7653C20.8529 48.4607 21.0734 49.2784 21.0313 50.1038Z" fill="#FFB448"/>
</g>
<g style="mix-blend-mode:screen" opacity="0.69">
<path d="M40.9367 78.961C40.2956 79.5091 39.8462 80.2434 39.6527 81.0589C40.5087 81.0527 41.342 80.7858 42.0389 80.2946C42.6799 79.7465 43.1293 79.0123 43.3228 78.1968C42.4668 78.203 41.6336 78.4698 40.9367 78.961Z" fill="#FFB448"/>
</g>
<g style="mix-blend-mode:screen" opacity="0.69">
<path d="M42.1626 81.01C41.3407 80.7712 40.4643 80.7885 39.6527 81.0597C40.1152 81.7692 40.7916 82.3173 41.5864 82.6264C42.408 82.8655 43.2842 82.8495 44.0963 82.5806C43.6334 81.8705 42.9573 81.3213 42.1626 81.01Z" fill="#FFB448"/>
</g>
<g style="mix-blend-mode:screen" opacity="0.69">
<path d="M44.3743 78.071C43.8183 78.7015 43.4773 79.4889 43.3997 80.3217C44.2463 80.2039 45.0352 79.8301 45.6583 79.2517C46.214 78.6226 46.555 77.8364 46.6328 77.0049C45.787 77.1223 44.9983 77.4946 44.3743 78.071Z" fill="#FFB448"/>
</g>
<g style="mix-blend-mode:screen" opacity="0.69">
<path d="M45.8941 79.9354C45.0476 79.8075 44.1819 79.9409 43.4151 80.3175C43.9711 80.9567 44.7144 81.4094 45.5421 81.6129C46.3886 81.7408 47.2543 81.6074 48.0211 81.2308C47.4651 80.5916 46.7218 80.1389 45.8941 79.9354Z" fill="#FFB448"/>
</g>
<g style="mix-blend-mode:screen" opacity="0.69">
<path d="M47.4985 76.4239C47.0509 77.1312 46.8423 77.9609 46.9029 78.793C47.7183 78.5478 48.4362 78.0577 48.9565 77.3906C49.4036 76.683 49.6121 75.8536 49.5521 75.0215C48.7366 75.2666 48.0188 75.7568 47.4985 76.4239Z" fill="#FFB448"/>
</g>
<g style="mix-blend-mode:screen" opacity="0.69">
<path d="M49.2852 78.0332C48.4303 78.0387 47.598 78.3057 46.9029 78.7974C47.5571 79.3464 48.3682 79.6803 49.2233 79.7527C50.0791 79.7456 50.9121 79.4788 51.6095 78.9885C50.9532 78.4404 50.1412 78.1067 49.2852 78.0332Z" fill="#FFB448"/>
</g>
<g style="mix-blend-mode:screen" opacity="0.69">
<path d="M50.3058 74.1655C50.0441 74.9588 50.0441 75.8138 50.3058 76.6072C51.0333 76.1755 51.6065 75.5303 51.9455 74.7616C52.2086 73.9684 52.2086 73.113 51.9455 72.3198C51.2178 72.7514 50.6446 73.3966 50.3058 74.1655Z" fill="#FFB448"/>
</g>
<g style="mix-blend-mode:screen" opacity="0.69">
<path d="M52.4443 75.3048C51.6167 75.5107 50.8746 75.9661 50.3211 76.6079C51.0734 77.0214 51.9505 77.1559 52.7943 76.9871C53.6381 76.8182 54.3931 76.3572 54.9233 75.6869C54.1561 75.3116 53.2907 75.1782 52.4443 75.3048Z" fill="#FFB448"/>
</g>
<g style="mix-blend-mode:screen" opacity="0.69">
<path d="M52.6258 71.3033C52.5689 72.1349 52.7801 72.9629 53.2291 73.6686C53.8661 73.1095 54.2734 72.339 54.3739 71.5031C54.4744 70.6671 54.2611 69.8238 53.7744 69.1328C53.1705 69.7192 52.7686 70.4786 52.6258 71.3033Z" fill="#FFB448"/>
</g>
<g style="mix-blend-mode:screen" opacity="0.69">
<path d="M54.9772 71.9186C54.2241 72.3077 53.613 72.9196 53.2292 73.6687C54.0636 73.8605 54.9376 73.7924 55.7313 73.4738C56.4844 73.0848 57.0956 72.4729 57.4794 71.7237C56.6448 71.5342 55.7714 71.6022 54.9772 71.9186Z" fill="#FFB448"/>
</g>
<g style="mix-blend-mode:screen" opacity="0.69">
<path d="M54.2883 68.1055C54.403 68.9339 54.7792 69.7054 55.3634 70.3103C55.8738 69.6364 56.1163 68.801 56.045 67.9622C55.9737 67.1235 55.5936 66.3397 54.9767 65.7593C54.5014 66.4495 54.2604 67.2711 54.2883 68.1055Z" fill="#FFB448"/>
</g>
<g style="mix-blend-mode:screen" opacity="0.69">
<path d="M56.7208 68.258C56.0612 68.7839 55.5862 69.5019 55.3634 70.3099C56.2189 70.3341 57.0614 70.098 57.7766 69.6336C58.4344 69.1068 58.9079 68.3889 59.1302 67.5816C58.2755 67.555 57.4336 67.7913 56.7208 68.258Z" fill="#FFB448"/>
</g>
<g style="mix-blend-mode:screen" opacity="0.69">
<path d="M55.2593 64.8762C55.5062 65.6783 56.0029 66.383 56.6786 66.89C57.0331 66.1321 57.136 65.2828 56.9725 64.4636C56.7223 63.6631 56.2246 62.9602 55.5493 62.4536C55.1951 63.2104 55.0935 64.0587 55.2593 64.8762Z" fill="#FFB448"/>
</g>
<g style="mix-blend-mode:screen" opacity="0.69">
<path d="M57.6837 64.6503C57.1175 65.273 56.7656 66.0569 56.6782 66.8895C57.5249 66.7814 58.3174 66.4185 58.9483 65.8501C59.5139 65.2286 59.8659 64.4461 59.9538 63.6147C59.1072 63.7206 58.3143 64.0823 57.6837 64.6503Z" fill="#FFB448"/>
</g>
<g style="mix-blend-mode:screen" opacity="0.69">
<path d="M55.3441 61.4065C55.7861 62.1246 56.4429 62.6894 57.2237 63.0229C57.381 62.2026 57.2699 61.354 56.9065 60.6002C56.4645 59.8822 55.8078 59.3174 55.027 58.9839C54.8697 59.8042 54.9808 60.6527 55.3441 61.4065Z" fill="#FFB448"/>
</g>
<g style="mix-blend-mode:screen" opacity="0.69">
<path d="M57.6413 60.6159C57.2488 61.3548 57.1026 62.1973 57.2236 63.0232C58.0116 62.7218 58.6867 62.1882 59.1573 61.4947C59.5498 60.7559 59.696 59.9133 59.575 59.0874C58.7861 59.3873 58.1106 59.9213 57.6413 60.6159Z" fill="#FFB448"/>
</g>
<g style="mix-blend-mode:screen" opacity="0.69">
<path d="M54.6676 57.7766C55.2676 58.3771 56.0422 58.7778 56.8835 58.923C56.8404 58.0842 56.5274 57.281 55.9902 56.6302C55.3885 56.0299 54.6127 55.6293 53.7703 55.4839C53.8137 56.3232 54.1282 57.1267 54.6676 57.7766Z" fill="#FFB448"/>
</g>
<g style="mix-blend-mode:screen" opacity="0.69">
<path d="M56.7093 56.4845C56.5043 57.2936 56.5652 58.1461 56.8833 58.9186C57.5835 58.4444 58.1142 57.7637 58.3993 56.9737C58.604 56.1646 58.5431 55.3122 58.2253 54.5396C57.5261 55.0149 56.9958 55.6953 56.7093 56.4845Z" fill="#FFB448"/>
</g>
<g style="mix-blend-mode:screen" opacity="0.69">
<path d="M53.3761 54.8497C54.1018 55.2984 54.95 55.5146 55.8048 55.4688C55.5624 54.6654 55.0698 53.9581 54.3971 53.4473C53.6714 52.9986 52.8232 52.7824 51.9684 52.8283C52.2108 53.6316 52.7034 54.339 53.3761 54.8497Z" fill="#FFB448"/>
</g>
<g style="mix-blend-mode:screen" opacity="0.69">
<path d="M55.0621 53.1374C55.0543 53.9724 55.3142 54.7883 55.8046 55.4684C56.407 54.8733 56.7676 54.0807 56.8182 53.2405C56.8688 52.4004 56.6059 51.5711 56.0792 50.9097C55.511 51.5278 55.1551 52.3075 55.0621 53.1374Z" fill="#FFB448"/>
</g>
<g style="mix-blend-mode:screen" opacity="0.69">
<path d="M51.6205 52.1708C52.4072 52.5024 53.2782 52.5865 54.1149 52.4115C53.7454 51.655 53.1448 51.0321 52.3978 50.6308C51.6092 50.3014 50.7372 50.2187 49.8995 50.3939C50.2708 51.1496 50.8727 51.7711 51.6205 52.1708Z" fill="#FFB448"/>
</g>
<g style="mix-blend-mode:screen" opacity="0.69">
<path d="M53.0046 50.2224C53.1319 51.0496 53.5203 51.8159 54.1146 52.412C54.6138 51.729 54.842 50.8886 54.7557 50.0504C54.6695 49.2122 54.2748 48.4345 53.6466 47.8647C53.1853 48.5636 52.9606 49.3892 53.0046 50.2224Z" fill="#FFB448"/>
</g>
<g style="mix-blend-mode:screen" opacity="0.69">
<path d="M50.6813 48.323C50.6251 48.3811 50.5643 48.4348 50.4996 48.4835L50.4377 48.5217C52.4988 50.2185 54.1601 52.3396 55.3056 54.7367C56.451 57.1339 57.0529 59.7493 57.0693 62.4003C57.0693 72.7175 48.0867 81.0897 37.0431 81.0897C25.9995 81.0897 17.0169 72.706 17.0169 62.4003C17.0296 59.8686 17.5779 57.3675 18.6268 55.0576C19.6756 52.7478 21.2017 50.6803 23.1071 48.9879C22.9966 48.9552 22.8892 48.913 22.7862 48.8618C20.8766 50.5782 19.3486 52.6679 18.2989 54.9984C17.2492 57.3289 16.7007 59.8494 16.6882 62.4003C16.696 72.8703 25.8139 81.3916 37.0276 81.3916C48.2414 81.3916 57.3747 72.8703 57.3747 62.4003C57.3604 59.7143 56.7542 57.0635 55.5983 54.6325C54.4424 52.2014 52.7645 50.0484 50.6813 48.323Z" fill="#FFB448"/>
</g>
<g style="mix-blend-mode:screen" opacity="0.69">
<path d="M25.1098 49.6764C24.2645 49.8132 23.3971 49.6877 22.627 49.3172C23.1498 48.6416 23.9002 48.1733 24.7424 47.9974C25.5845 47.8214 26.4626 47.9494 27.2175 48.3581C26.6714 49.0042 25.9344 49.4652 25.1098 49.6764Z" fill="#FFB448"/>
</g>
<g style="mix-blend-mode:screen" opacity="0.69">
<path d="M24.267 47.452C23.9367 48.2244 23.3683 48.8743 22.6427 49.3091C22.3684 48.5211 22.3549 47.6673 22.604 46.8712C22.937 46.0983 23.5063 45.4476 24.2321 45.0103C24.5039 45.8002 24.5161 46.6548 24.267 47.452Z" fill="#FFB448"/>
</g>
<g style="mix-blend-mode:screen" opacity="0.69">
<path d="M49.0611 49.6764C49.9064 49.8132 50.7739 49.6877 51.544 49.3172C51.0212 48.6416 50.2707 48.1733 49.4285 47.9974C48.5864 47.8214 47.7083 47.9494 46.9534 48.3581C47.4995 49.0042 48.2365 49.4652 49.0611 49.6764Z" fill="#FFB448"/>
</g>
<g style="mix-blend-mode:screen" opacity="0.69">
<path d="M49.9192 47.452C50.2508 48.2236 50.8188 48.8731 51.5435 49.3091C51.8178 48.5211 51.8313 47.6673 51.5822 46.8712C51.2491 46.0983 50.6799 45.4476 49.954 45.0103C49.6823 45.8002 49.6701 46.6548 49.9192 47.452Z" fill="#FFB448"/>
</g>
</g>
<path d="M40.3989 58.1358C42.9355 58.8045 44.5093 60.3979 44.5093 63.0231C44.5093 69.2936 35.6157 70.2031 29.6299 68.5638L29.9354 64.1809C32.2554 65.3616 36.0333 65.8164 37.9745 64.563C38.3026 64.3784 38.5797 64.1168 38.7811 63.8012C38.9825 63.4855 39.1021 63.1257 39.1292 62.7536C39.1564 62.3814 39.0903 62.0083 38.9367 61.6674C38.7832 61.3266 38.547 61.0283 38.249 60.7991C36.9768 59.9126 35.0086 60.2718 33.1603 60.1877V56.4774H35.5074C40.1128 56.4774 40.2211 51.7085 35.3914 51.7085C33.7359 51.7263 32.0977 52.0436 30.5579 52.6447L30.3104 48.7242C31.3222 48.4161 32.3564 48.1848 33.4039 48.0325C44.8342 46.3398 45.2711 53.8675 43.2024 56.4086C42.4706 57.2564 41.4914 57.8597 40.3989 58.1358Z" fill="#FFB839"/>
</svg>
