<svg width="34" height="31" viewBox="0 0 34 31" fill="none" xmlns="http://www.w3.org/2000/svg">
<path d="M0.737858 14.0487C0.0686226 13.428 -0.167618 12.517 0.121044 11.6702C0.410389 10.8234 1.16404 10.2189 2.08994 10.0906L10.3223 8.9522C10.6729 8.90361 10.9759 8.69433 11.1324 8.39176L14.8129 1.29323C15.2262 0.495653 16.0649 0 16.9997 0C17.9337 0 18.7725 0.495653 19.1857 1.29323L22.8669 8.3924C23.0235 8.69498 23.3271 8.90425 23.6777 8.95285L31.9101 10.0912C32.8353 10.2189 33.5896 10.824 33.879 11.6708C34.1676 12.5177 33.9314 13.4286 33.2621 14.0493L27.3057 19.5747C27.0518 19.8106 26.9354 20.1501 26.9953 20.4818L28.4005 28.284C28.5251 28.9707 28.3358 29.6387 27.8688 30.1655C27.143 30.9864 25.876 31.2365 24.863 30.7298L17.5007 27.0458C17.193 26.8922 16.8056 26.8935 16.4986 27.0458L9.13564 30.7298C8.77753 30.9093 8.3956 31 8.00141 31C7.28179 31 6.59962 30.6955 6.13054 30.1655C5.66283 29.6387 5.47425 28.9694 5.59883 28.284L7.0047 20.4818C7.06461 20.1494 6.9482 19.8106 6.69426 19.5747L0.737858 14.0487Z" fill="#FFB800"/>
</svg>
