<svg width="30" height="30" viewBox="0 0 30 30" fill="none" xmlns="http://www.w3.org/2000/svg">
<path d="M15 0C6.71582 0 0 6.71582 0 15C0 23.2842 6.71582 30 15 30C23.2842 30 30 23.2842 30 15C29.9907 6.71973 23.2803 0.00927738 15 0ZM15.5354 4.32446L20.75 2.23999C21.3418 2.50781 21.9143 2.81641 22.4634 3.16357L22.4771 3.17212C23.0166 3.51392 23.5322 3.89209 24.0205 4.30396L24.0625 4.34058C24.2815 4.5271 24.4944 4.72021 24.7014 4.91943C24.7275 4.94507 24.7549 4.96948 24.781 4.99561C24.998 5.20752 25.2083 5.42603 25.4116 5.65088C25.4285 5.66992 25.4446 5.68994 25.4614 5.70898C25.6399 5.90894 25.8115 6.11597 25.978 6.32642C26.0181 6.37646 26.0581 6.42651 26.0969 6.47656C26.2776 6.71045 26.4524 6.94849 26.6174 7.19409L25.5779 11.613L20.4634 13.3181L15.5366 9.37598L15.5354 4.32446ZM3.90259 6.47949C3.94141 6.42944 3.98096 6.37939 4.021 6.32959C4.18555 6.12085 4.35571 5.91724 4.53149 5.71851C4.55054 5.69751 4.56812 5.67603 4.58691 5.65503C4.78906 5.42969 4.99829 5.21143 5.21509 5C5.23999 4.97559 5.26489 4.94995 5.29102 4.92749C5.49634 4.72949 5.70752 4.5376 5.92456 4.35205L5.97461 4.31006C6.4585 3.90112 6.96924 3.52539 7.50342 3.18506L7.52295 3.17261C8.06885 2.82617 8.6377 2.51807 9.22607 2.25L14.4646 4.32446V9.37451L9.5376 13.3159L4.4231 11.614L3.38354 7.19507C3.55005 6.94995 3.7229 6.7124 3.90259 6.47949ZM3.30005 22.6726C3.15308 22.4485 3.01245 22.2202 2.87842 21.9875L2.84595 21.9314C2.71265 21.7 2.58643 21.4646 2.46753 21.2256L2.46338 21.218C2.21289 20.7151 1.99292 20.1975 1.80493 19.668V19.6631C1.71606 19.4131 1.63501 19.157 1.56006 18.8994L1.53296 18.8044C1.46436 18.5625 1.4021 18.3179 1.34644 18.0706C1.34155 18.0464 1.33545 18.0234 1.33057 17.9995C1.20776 17.4409 1.11963 16.8755 1.06641 16.3059L4.1189 12.6431L9.198 14.3359L10.6721 20.2319L8.25 23.4546L3.30005 22.6726ZM18.3296 28.5964C18.0796 28.6584 17.823 28.7119 17.5664 28.76C17.5305 28.7671 17.4939 28.7729 17.458 28.7795C17.2395 28.8186 17.0186 28.8521 16.7971 28.8794C16.738 28.887 16.6794 28.895 16.6206 28.9021C16.415 28.926 16.2075 28.9441 15.9995 28.959C15.9341 28.9634 15.8694 28.97 15.804 28.9741C15.5381 28.9905 15.27 29 15 29C14.7527 29 14.5068 28.9934 14.2625 28.9805C14.2329 28.9805 14.2046 28.9756 14.175 28.9734C13.9575 28.9609 13.741 28.9446 13.5249 28.9236L13.5 28.9189C13.0266 28.8677 12.5559 28.7925 12.0901 28.6941L9.13257 24.0635L11.5166 20.8845H18.4834L20.9065 24.0845L18.3296 28.5964ZM28.6731 18C28.668 18.0239 28.6621 18.0471 28.657 18.071C28.6011 18.3181 28.5388 18.5627 28.4705 18.8049L28.4436 18.8999C28.3684 19.1575 28.2876 19.4126 28.1985 19.6636V19.6685C28.0105 20.198 27.7908 20.7156 27.54 21.2185L27.5359 21.2261C27.4163 21.4653 27.2903 21.7007 27.1575 21.9319L27.125 21.988C26.9917 22.2214 26.8513 22.4492 26.7041 22.6721L21.771 23.45L19.332 20.23L20.8054 14.3354L25.8845 12.6426L28.937 16.3054C28.884 16.8752 28.7959 17.4412 28.6731 18Z" fill="#5D748A"/>
</svg>
