<svg width="13" height="13" viewBox="0 0 13 13" fill="none" xmlns="http://www.w3.org/2000/svg">
<path d="M8.64499 6.5004L12.6667 2.47869C13.1111 2.03433 13.1111 1.31391 12.6667 0.870248L12.1306 0.334102C11.6861 -0.110395 10.9656 -0.110395 10.522 0.334102L6.5004 4.35568L2.47869 0.333269C2.03433 -0.11109 1.31391 -0.11109 0.870248 0.333269L0.333269 0.869414C-0.11109 1.31391 -0.11109 2.03433 0.333269 2.47799L4.35568 6.5004L0.334102 10.522C-0.110395 10.9665 -0.110395 11.6869 0.334102 12.1306L0.870248 12.6667C1.31461 13.1111 2.03502 13.1111 2.47869 12.6667L6.5004 8.64499L10.522 12.6667C10.9665 13.1111 11.6869 13.1111 12.1306 12.6667L12.6667 12.1306C13.1111 11.6861 13.1111 10.9656 12.6667 10.522L8.64499 6.5004Z" fill="#5D748A"/>
</svg>
